<svg width="360" height="84" viewBox="0 0 360 84" fill="none" xmlns="http://www.w3.org/2000/svg">
<g filter="url(#filter0_d_1982_2558)">
<rect y="22.002" width="359.124" height="58.6861" fill="white"/>
</g>
<rect x="14.0156" y="31.6367" width="94.5985" height="39.4161" rx="7.0073" fill="#2AB7FF"/>
<path d="M36.5677 44.6669L29.9984 49.5939L31.0933 59.4479H42.0422L43.1371 49.5939L36.5677 44.6669ZM36.5677 41.9297L45.3268 48.499L43.6845 61.6377H29.4509L27.8086 48.499L36.5677 41.9297Z" fill="white"/>
<path d="M63.7802 47.0633V55.5859H62.3823V51.8581H58.3724V55.5859H56.9744V47.0633H58.3724V50.7176H62.3823V47.0633H63.7802ZM68.6828 55.6963C68.0451 55.6963 67.4688 55.5532 66.9537 55.2671C66.4387 54.9728 66.034 54.564 65.7397 54.0408C65.4454 53.5094 65.2983 52.8963 65.2983 52.2014C65.2983 51.5147 65.4495 50.9056 65.752 50.3743C66.0545 49.8429 66.4673 49.4341 66.9905 49.148C67.5137 48.8618 68.0983 48.7188 68.7441 48.7188C69.39 48.7188 69.9745 48.8618 70.4977 49.148C71.0209 49.4341 71.4337 49.8429 71.7362 50.3743C72.0387 50.9056 72.19 51.5147 72.19 52.2014C72.19 52.8881 72.0346 53.4972 71.724 54.0286C71.4133 54.56 70.9882 54.9728 70.4486 55.2671C69.9173 55.5532 69.3286 55.6963 68.6828 55.6963ZM68.6828 54.4823C69.0425 54.4823 69.3777 54.3964 69.6883 54.2248C70.0072 54.0531 70.2647 53.7956 70.4609 53.4522C70.6571 53.1089 70.7552 52.6919 70.7552 52.2014C70.7552 51.7109 70.6612 51.2981 70.4732 50.9629C70.2851 50.6195 70.0358 50.362 69.7251 50.1903C69.4145 50.0186 69.0793 49.9328 68.7196 49.9328C68.3599 49.9328 68.0247 50.0186 67.714 50.1903C67.4116 50.362 67.1704 50.6195 66.9905 50.9629C66.8107 51.2981 66.7208 51.7109 66.7208 52.2014C66.7208 52.929 66.9047 53.4931 67.2726 53.8937C67.6486 54.2861 68.1187 54.4823 68.6828 54.4823ZM81.8826 48.7188C82.414 48.7188 82.8881 48.8291 83.305 49.0499C83.7302 49.2706 84.0613 49.5976 84.2983 50.0309C84.5436 50.4642 84.6662 50.9874 84.6662 51.6005V55.5859H83.2805V51.809C83.2805 51.204 83.1293 50.7421 82.8268 50.4233C82.5243 50.0963 82.1115 49.9328 81.5883 49.9328C81.065 49.9328 80.6481 50.0963 80.3375 50.4233C80.035 50.7421 79.8837 51.204 79.8837 51.809V55.5859H78.498V51.809C78.498 51.204 78.3468 50.7421 78.0443 50.4233C77.7418 50.0963 77.329 49.9328 76.8058 49.9328C76.2826 49.9328 75.8656 50.0963 75.555 50.4233C75.2525 50.7421 75.1013 51.204 75.1013 51.809V55.5859H73.7033V48.8291H75.1013V49.6017C75.3302 49.3237 75.6204 49.1071 75.9719 48.9518C76.3234 48.7964 76.6995 48.7188 77.1001 48.7188C77.6396 48.7188 78.122 48.8332 78.5471 49.0621C78.9722 49.291 79.2992 49.6221 79.5281 50.0554C79.7325 49.6467 80.0513 49.3237 80.4846 49.0867C80.9179 48.8414 81.3839 48.7188 81.8826 48.7188ZM92.7692 52.042C92.7692 52.2954 92.7528 52.5243 92.7201 52.7287H87.5575C87.5984 53.2683 87.7987 53.7016 88.1584 54.0286C88.5181 54.3556 88.9595 54.5191 89.4827 54.5191C90.2349 54.5191 90.7663 54.2043 91.0769 53.5748H92.5852C92.3809 54.1962 92.0089 54.7071 91.4693 55.1077C90.9379 55.5001 90.2757 55.6963 89.4827 55.6963C88.8369 55.6963 88.2565 55.5532 87.7414 55.2671C87.2346 54.9728 86.834 54.564 86.5397 54.0408C86.2536 53.5094 86.1105 52.8963 86.1105 52.2014C86.1105 51.5065 86.2495 50.8975 86.5274 50.3743C86.8136 49.8429 87.21 49.4341 87.7169 49.148C88.2319 48.8618 88.8206 48.7188 89.4827 48.7188C90.1204 48.7188 90.6886 48.8578 91.1873 49.1357C91.686 49.4137 92.0743 49.8061 92.3522 50.3129C92.6302 50.8116 92.7692 51.388 92.7692 52.042ZM91.3099 51.6005C91.3017 51.0855 91.1178 50.6727 90.7581 50.362C90.3984 50.0513 89.9528 49.896 89.4214 49.896C88.9391 49.896 88.5263 50.0513 88.1829 50.362C87.8395 50.6645 87.6352 51.0773 87.5698 51.6005H91.3099Z" fill="white"/>
<path d="M149.446 58.4581C148.908 58.4581 148.473 58.0224 148.473 57.4849V54.6139C148.473 54.0764 148.908 53.6406 149.446 53.6406C149.983 53.6406 150.419 54.0764 150.419 54.6139V57.4849C150.419 58.0224 149.983 58.4581 149.446 58.4581Z" fill="#3D3D3A"/>
<path d="M153.723 58.4575C153.186 58.4575 152.75 58.0217 152.75 57.4843V51.7838C152.75 51.2463 153.186 50.8105 153.723 50.8105C154.261 50.8105 154.696 51.2463 154.696 51.7838V57.4843C154.696 58.0217 154.261 58.4575 153.723 58.4575Z" fill="#3D3D3A"/>
<path d="M157.997 58.4588C157.459 58.4588 157.023 58.023 157.023 57.4855V46.0846C157.023 45.5471 157.459 45.1113 157.997 45.1113C158.534 45.1113 158.97 45.5471 158.97 46.0846V57.4853C158.97 58.023 158.534 58.4588 157.997 58.4588Z" fill="#3D3D3A"/>
<path d="M161.606 62.7337H145.838C144.148 62.7337 142.773 61.3591 142.773 59.6688V43.9009C142.773 42.2109 144.148 40.8359 145.838 40.8359H161.607C163.297 40.8359 164.671 42.2109 164.671 43.9009V59.669C164.671 61.3591 163.297 62.7337 161.606 62.7337ZM145.838 42.7824C145.222 42.7824 144.72 43.2841 144.72 43.9009V59.669C144.72 60.2856 145.222 60.7873 145.838 60.7873H161.607C162.223 60.7873 162.725 60.2856 162.725 59.6688V43.9009C162.725 43.2841 162.223 42.7824 161.606 42.7824H145.838Z" fill="#3D3D3A"/>
<g clip-path="url(#clip0_1982_2558)">
<path d="M236.716 46.6158V44.1195C236.716 42.9151 235.73 41.9297 234.526 41.9297H219.198C217.982 41.9297 217.008 42.9151 217.008 44.1195V59.4479C217.008 60.6523 217.982 61.6377 219.198 61.6377H234.526C235.73 61.6377 236.716 60.6523 236.716 59.4479V56.9516C237.362 56.5684 237.811 55.8786 237.811 55.0684V48.499C237.811 47.6888 237.362 46.999 236.716 46.6158ZM235.621 48.499V55.0684H227.957V48.499H235.621ZM219.198 59.4479V44.1195H234.526V46.3092H227.957C226.752 46.3092 225.767 47.2947 225.767 48.499V55.0684C225.767 56.2728 226.752 57.2582 227.957 57.2582H234.526V59.4479H219.198Z" fill="#3D3D3A"/>
<path d="M231.24 53.4253C232.147 53.4253 232.882 52.69 232.882 51.783C232.882 50.8759 232.147 50.1406 231.24 50.1406C230.333 50.1406 229.598 50.8759 229.598 51.783C229.598 52.69 230.333 53.4253 231.24 53.4253Z" fill="#3D3D3A"/>
</g>
<g clip-path="url(#clip1_1982_2558)">
<path d="M302.191 40.834C296.147 40.834 291.242 45.7391 291.242 51.7829C291.242 57.8267 296.147 62.7318 302.191 62.7318C308.235 62.7318 313.14 57.8267 313.14 51.7829C313.14 45.7391 308.235 40.834 302.191 40.834ZM296.793 58.6588C297.264 57.6734 300.133 56.7099 302.191 56.7099C304.249 56.7099 307.129 57.6734 307.589 58.6588C306.1 59.8413 304.228 60.542 302.191 60.542C300.155 60.542 298.282 59.8413 296.793 58.6588ZM309.155 57.0712C307.589 55.1661 303.79 54.5201 302.191 54.5201C300.593 54.5201 296.793 55.1661 295.228 57.0712C294.111 55.6041 293.432 53.7756 293.432 51.7829C293.432 46.9544 297.363 43.0238 302.191 43.0238C307.02 43.0238 310.95 46.9544 310.95 51.7829C310.95 53.7756 310.271 55.6041 309.155 57.0712ZM302.191 45.2135C300.067 45.2135 298.359 46.9216 298.359 49.0457C298.359 51.1698 300.067 52.8778 302.191 52.8778C304.315 52.8778 306.023 51.1698 306.023 49.0457C306.023 46.9216 304.315 45.2135 302.191 45.2135ZM302.191 50.688C301.282 50.688 300.549 49.9544 300.549 49.0457C300.549 48.1369 301.282 47.4033 302.191 47.4033C303.1 47.4033 303.833 48.1369 303.833 49.0457C303.833 49.9544 303.1 50.688 302.191 50.688Z" fill="#3D3D3A"/>
</g>
<defs>
<filter id="filter0_d_1982_2558" x="-14.0146" y="0.980056" width="387.154" height="86.7147" filterUnits="userSpaceOnUse" color-interpolation-filters="sRGB">
<feFlood flood-opacity="0" result="BackgroundImageFix"/>
<feColorMatrix in="SourceAlpha" type="matrix" values="0 0 0 0 0 0 0 0 0 0 0 0 0 0 0 0 0 0 127 0" result="hardAlpha"/>
<feOffset dy="-7.0073"/>
<feGaussianBlur stdDeviation="7.0073"/>
<feComposite in2="hardAlpha" operator="out"/>
<feColorMatrix type="matrix" values="0 0 0 0 0.905882 0 0 0 0 0.435294 0 0 0 0 0.317647 0 0 0 0.12 0"/>
<feBlend mode="normal" in2="BackgroundImageFix" result="effect1_dropShadow_1982_2558"/>
<feBlend mode="normal" in="SourceGraphic" in2="effect1_dropShadow_1982_2558" result="shape"/>
</filter>
<clipPath id="clip0_1982_2558">
<rect width="26.2774" height="26.2774" fill="white" transform="translate(213.723 38.6445)"/>
</clipPath>
<clipPath id="clip1_1982_2558">
<rect width="26.2774" height="26.2774" fill="white" transform="translate(289.051 38.6445)"/>
</clipPath>
</defs>
</svg>
