<svg width="281" height="188" viewBox="0 0 281 188" fill="none" xmlns="http://www.w3.org/2000/svg">
<g clip-path="url(#clip0_1982_3001)">
<path opacity="0.1" d="M163.67 37.8231C147.18 37.237 131.475 31.9146 116.488 26.1029C101.502 20.2913 86.6378 13.8248 70.543 10.7394C60.1911 8.75458 48.3512 8.47432 40.0121 14.0235C31.9838 19.374 29.3901 28.5845 27.9964 37.1402C26.9467 43.5761 26.3301 50.3483 29.2041 56.374C31.2016 60.5576 34.7431 64.0736 37.1941 68.0814C45.7218 82.0232 39.6936 99.2161 30.4551 112.829C26.1237 119.217 21.0917 125.314 17.7464 132.106C14.401 138.899 12.8545 146.693 15.782 153.628C18.6814 160.507 25.5938 165.664 33.0819 169.295C48.29 176.668 66.204 178.781 83.6848 179.975C122.369 182.623 161.257 181.476 200.043 180.33C214.397 179.904 228.813 179.474 242.933 177.254C250.776 176.021 258.87 174.064 264.565 169.343C271.79 163.348 273.582 153.195 268.738 145.679C260.616 133.069 238.164 129.938 232.48 116.404C229.356 108.957 232.564 100.658 237.106 93.751C246.849 78.9327 263.179 65.931 264.037 48.9903C264.628 37.3568 256.778 25.7055 244.64 20.1995C231.919 14.4287 214.275 15.1548 204.894 24.7067C195.217 34.5312 178.231 38.3148 163.67 37.8231Z" fill="#2AB7FF"/>
<path d="M43.9263 187.126C54.228 187.126 62.5791 185.52 62.5791 183.539C62.5791 181.557 54.228 179.951 43.9263 179.951C33.6246 179.951 25.2734 181.557 25.2734 183.539C25.2734 185.52 33.6246 187.126 43.9263 187.126Z" fill="#2AB7FF"/>
<path d="M43.6122 184.859C44.8111 184.859 45.783 183.586 45.783 182.015C45.783 180.445 44.8111 179.172 43.6122 179.172C42.4133 179.172 41.4414 180.445 41.4414 182.015C41.4414 183.586 42.4133 184.859 43.6122 184.859Z" fill="#3F3D56"/>
<path d="M43.6122 181.382C44.8111 181.382 45.783 180.109 45.783 178.539C45.783 176.968 44.8111 175.695 43.6122 175.695C42.4133 175.695 41.4414 176.968 41.4414 178.539C41.4414 180.109 42.4133 181.382 43.6122 181.382Z" fill="#3F3D56"/>
<path d="M43.6122 177.908C44.8111 177.908 45.783 176.634 45.783 175.064C45.783 173.494 44.8111 172.221 43.6122 172.221C42.4133 172.221 41.4414 173.494 41.4414 175.064C41.4414 176.634 42.4133 177.908 43.6122 177.908Z" fill="#3F3D56"/>
<path d="M43.6122 174.435C44.8111 174.435 45.783 173.162 45.783 171.591C45.783 170.021 44.8111 168.748 43.6122 168.748C42.4133 168.748 41.4414 170.021 41.4414 171.591C41.4414 173.162 42.4133 174.435 43.6122 174.435Z" fill="#3F3D56"/>
<path d="M43.6122 170.958C44.8111 170.958 45.783 169.685 45.783 168.115C45.783 166.545 44.8111 165.271 43.6122 165.271C42.4133 165.271 41.4414 166.545 41.4414 168.115C41.4414 169.685 42.4133 170.958 43.6122 170.958Z" fill="#3F3D56"/>
<path d="M43.6122 167.484C44.8111 167.484 45.783 166.211 45.783 164.64C45.783 163.07 44.8111 161.797 43.6122 161.797C42.4133 161.797 41.4414 163.07 41.4414 164.64C41.4414 166.211 42.4133 167.484 43.6122 167.484Z" fill="#3F3D56"/>
<path d="M43.6122 164.009C44.8111 164.009 45.783 162.736 45.783 161.166C45.783 159.595 44.8111 158.322 43.6122 158.322C42.4133 158.322 41.4414 159.595 41.4414 161.166C41.4414 162.736 42.4133 164.009 43.6122 164.009Z" fill="#3F3D56"/>
<path d="M51.7432 137.387C52.0407 137.009 52.3115 136.612 52.5534 136.197L46.8463 135.259L53.0172 135.305C53.6096 134.017 53.9328 132.622 53.967 131.204C54.0012 129.787 53.7456 128.378 53.2159 127.063L44.9379 131.358L52.5815 125.753C51.8655 124.518 50.903 123.444 49.7539 122.597C48.6049 121.75 47.2938 121.149 45.9023 120.83C44.5109 120.512 43.0688 120.483 41.6658 120.746C40.2628 121.009 38.9289 121.558 37.7471 122.359C36.5654 123.159 35.561 124.195 34.7966 125.4C34.0322 126.606 33.524 127.956 33.3037 129.366C33.0834 130.776 33.1558 132.217 33.5162 133.598C33.8766 134.979 34.5174 136.271 35.3987 137.394C34.9364 137.983 34.5384 138.619 34.2115 139.292L41.6206 143.14L33.7223 140.49C33.1666 142.129 33.029 143.881 33.3217 145.587C33.6145 147.293 34.3284 148.898 35.3987 150.258C34.1916 151.793 33.4406 153.636 33.2317 155.577C33.0227 157.518 33.3642 159.479 34.2171 161.235C35.07 162.991 36.3999 164.472 38.0547 165.508C39.7095 166.544 41.6225 167.093 43.5748 167.093C45.5272 167.093 47.4401 166.544 49.0949 165.508C50.7497 164.472 52.0796 162.991 52.9325 161.235C53.7854 159.479 54.1269 157.518 53.9179 155.577C53.709 153.636 52.958 151.793 51.7509 150.258C53.1934 148.425 53.9777 146.159 53.9777 143.826C53.9777 141.493 53.1934 139.228 51.7509 137.394L51.7432 137.387Z" fill="#2AB7FF"/>
<path opacity="0.1" d="M33.1719 143.815C33.1688 146.148 33.9534 148.414 35.3987 150.245C34.1916 151.78 33.4406 153.623 33.2316 155.564C33.0227 157.505 33.3642 159.466 34.2171 161.222C35.07 162.978 36.3999 164.459 38.0547 165.495C39.7095 166.531 41.6224 167.08 43.5748 167.08C45.5271 167.08 47.44 166.531 49.0949 165.495C50.7497 164.459 52.0796 162.978 52.9325 161.222C53.7854 159.466 54.1269 157.505 53.9179 155.564C53.709 153.623 52.958 151.78 51.7508 150.245C53.1369 148.48 33.1719 142.65 33.1719 143.815Z" fill="black"/>
<path d="M134.296 140.247C134.454 142.286 135.238 144.395 136.889 145.598C138.54 146.8 141.167 146.777 142.428 145.162C142.852 144.556 143.163 143.878 143.348 143.162C144.411 139.804 145.165 136.13 144 132.805C141.374 132.634 138.329 131.399 136.357 133.569C134.764 135.338 134.112 137.891 134.296 140.247Z" fill="#3F3D56"/>
<path d="M146.491 119.704C146.142 122.668 145.549 125.618 145.61 128.601C145.633 129.753 145.755 130.895 145.758 132.051C145.762 135.055 144.971 138.006 143.465 140.604C143.306 140.91 143.094 141.184 142.838 141.415C142.234 141.904 141.324 141.863 140.647 141.489C139.984 141.077 139.446 140.493 139.09 139.799C137.192 136.548 137.138 132.597 136.387 128.91C135.811 126.089 134.802 123.355 134.437 120.502C134.201 118.665 134.236 116.792 133.859 114.978C133.744 114.43 133.423 113.607 133.212 112.8C133.018 112.079 132.911 111.37 133.11 110.884C133.515 109.888 134.843 110.275 135.706 110.336C138.748 110.561 141.802 110.554 144.843 110.313C145.144 110.29 145.485 110.277 145.696 110.491C145.789 110.599 145.858 110.725 145.9 110.861C146.142 111.523 146.327 112.205 146.453 112.899C146.874 115.118 146.756 117.444 146.491 119.704Z" fill="#FABDBD"/>
<g opacity="0.1">
<path opacity="0.1" d="M145.315 110.313C145.158 110.297 145 110.297 144.843 110.313C143.386 110.43 141.926 110.489 140.469 110.497C142.084 110.5 143.699 110.439 145.315 110.313Z" fill="black"/>
<path opacity="0.1" d="M141.156 141.488C140.494 141.076 139.956 140.492 139.599 139.799C137.701 136.548 137.648 132.596 136.896 128.909C136.32 126.089 135.311 123.355 134.947 120.501C134.71 118.664 134.746 116.792 134.369 114.978C134.254 114.43 133.933 113.607 133.722 112.799C133.528 112.078 133.421 111.37 133.62 110.883C133.704 110.684 133.846 110.514 134.028 110.396C134.209 110.278 134.422 110.217 134.639 110.221C133.994 110.178 133.365 110.254 133.11 110.883C132.911 111.37 133.018 112.078 133.212 112.799C133.423 113.607 133.744 114.43 133.859 114.978C134.236 116.792 134.201 118.664 134.437 120.501C134.802 123.358 135.811 126.091 136.387 128.909C137.138 132.596 137.192 136.553 139.09 139.799C139.446 140.492 139.984 141.076 140.647 141.488C141.053 141.713 141.519 141.807 141.982 141.758C141.692 141.72 141.412 141.629 141.156 141.488Z" fill="black"/>
</g>
<path d="M156.125 135.33C154.596 138.387 154.851 142.718 154.851 142.718C155.105 152.91 151.029 174.312 151.029 174.312H147.462C147.462 174.312 146.952 150.617 147.462 148.579C147.972 146.54 147.207 139.406 146.443 129.47C145.875 122.081 147.421 115.385 148.252 112.447C148.537 111.428 148.736 110.87 148.736 110.87C148.736 110.87 154.596 102.208 157.908 106.284C158.672 107.232 159.078 109.145 159.218 111.561C159.671 119.53 157.297 132.983 156.125 135.33Z" fill="#FABDBD"/>
<path opacity="0.1" d="M159.219 111.561C159.079 109.145 158.679 107.229 157.909 106.284C157.17 105.377 156.304 105.102 155.407 105.222C156.102 105.337 156.725 105.718 157.145 106.284C157.909 107.232 158.314 109.145 158.454 111.561C158.908 119.531 156.533 132.983 155.361 135.33C153.833 138.387 154.087 142.719 154.087 142.719C154.342 152.91 150.266 174.312 150.266 174.312H151.03C151.03 174.312 155.107 152.91 154.852 142.719C154.852 142.719 154.597 138.387 156.126 135.33C157.298 132.983 159.672 119.531 159.219 111.561Z" fill="black"/>
<path d="M145.608 173.382C145.323 173.606 145.077 173.874 144.879 174.177C144.423 175.038 145.07 176.068 145.763 176.753C146.456 177.439 147.292 178.172 147.292 179.148C147.292 179.933 146.698 180.606 146.033 181.023C145.677 181.248 145.228 181.533 145.302 181.956C145.328 182.063 145.374 182.164 145.437 182.254C146.008 183.128 147.019 183.64 148.043 183.834C149.068 184.027 150.125 183.943 151.167 183.859C151.323 183.865 151.476 183.812 151.595 183.711C151.671 183.61 151.711 183.486 151.71 183.36C151.761 182.82 151.728 182.249 151.965 181.762C152.296 181.097 153.058 180.758 153.493 180.162C154.105 179.347 154.021 178.213 153.789 177.222C153.279 175.064 152.146 172.603 150.444 171.107C148.472 169.39 146.925 172.142 145.608 173.382Z" fill="#3F3D56"/>
<path d="M153.328 44.9584C154.75 42.8335 154.38 39.8627 152.928 37.748C151.476 35.6332 149.142 34.3033 146.734 33.4446C143.488 32.2879 139.908 31.893 136.573 32.7618C133.918 33.4523 131.533 34.8969 129.031 36.0129C124.605 37.9878 119.792 38.9455 114.947 38.8155C109.568 38.6652 103.675 37.2868 99.163 40.227C90.9029 45.6005 94.5769 60.2251 86.7626 66.2151C84.6555 67.8305 82.0032 68.5362 79.6592 69.7821C77.3152 71.028 75.0934 73.1963 75.1495 75.8511C75.175 77.1251 75.7355 78.3404 76.4234 79.4181C79.3534 84.0629 84.8313 86.9368 90.3168 86.8833C95.8024 86.8298 101.155 83.9125 104.317 79.4232C105.11 78.2996 105.808 77.0486 106.957 76.2996C109.25 74.7963 112.272 75.8486 115.008 76.0728C121.1 76.5696 127.194 71.9962 128.407 65.996C128.917 63.4354 128.828 60.3755 130.889 58.7678C132.553 57.4709 134.894 57.7486 137.004 57.527C140.861 57.1269 143.906 54.7243 146 51.5854C146.961 50.1458 147.073 48.426 148.382 47.2922C149.794 46.0463 151.977 46.9661 153.328 44.9584Z" fill="#3F3D56"/>
<g opacity="0.1">
<path opacity="0.1" d="M109.854 39.3059C112.088 39.3672 114.322 39.1964 116.521 38.7963C115.915 38.8141 115.304 38.8141 114.695 38.7963C110.473 38.6791 105.935 37.8077 101.996 38.8574C104.595 38.8829 107.283 39.2345 109.854 39.3059Z" fill="black"/>
<path opacity="0.1" d="M101.856 76.8049C100.707 77.554 100.009 78.805 99.2165 79.9286C96.781 83.3472 93.2215 85.8011 89.1602 86.8613C89.4583 86.874 89.7564 86.8817 90.057 86.8791C95.5476 86.8256 100.896 83.9083 104.057 79.419C104.85 78.2954 105.548 77.0444 106.697 76.2954L106.896 76.1731C105.097 75.9259 103.331 75.8393 101.856 76.8049Z" fill="black"/>
<path opacity="0.1" d="M152.673 37.7402C151.223 35.6356 148.887 34.2955 146.479 33.4368C143.233 32.2801 139.653 31.8852 136.318 32.754C136.242 32.7718 136.168 32.7948 136.094 32.8151C137.987 32.9207 139.855 33.3018 141.638 33.9464C144.046 34.805 146.382 36.1452 147.832 38.2497C149.282 40.3543 149.654 43.3454 148.232 45.4602C146.882 47.4755 144.698 46.5557 143.269 47.7965C141.959 48.9303 141.847 50.6501 140.887 52.0897C139.085 54.7827 136.578 56.9306 133.457 57.7459C134.53 57.6185 135.661 57.6338 136.731 57.5217C140.588 57.1217 143.633 54.7191 145.727 51.5801C146.688 50.1406 146.8 48.4208 148.11 47.287C149.539 46.0462 151.723 46.9659 153.073 44.9506C154.497 42.8257 154.128 39.8447 152.673 37.7402Z" fill="black"/>
<path opacity="0.1" d="M131.891 58.0325C129.794 58.2516 127.452 57.9765 125.776 59.2733C123.715 60.881 123.814 63.941 123.294 66.5016C122.4 70.9782 118.767 74.67 114.453 76.0433L114.756 76.0713C120.848 76.5682 126.943 71.9948 128.155 65.9946C128.665 63.434 128.576 60.374 130.637 58.7663C131.111 58.4123 131.648 58.1527 132.219 58.002C132.105 58.0045 132 58.0223 131.891 58.0325Z" fill="black"/>
</g>
<path d="M193.449 35.8358C193.449 35.8358 187.334 48.0655 185.296 52.6517C183.258 57.2378 164.658 64.117 162.11 64.3718C161.427 64.4655 160.79 64.7722 160.291 65.2483C158.852 66.5222 158.034 68.7032 158.034 68.7032C158.034 68.7032 159.053 75.5824 157.779 87.0477C157.753 87.2694 157.731 87.491 157.71 87.705C156.599 98.615 158.926 101.188 158.926 101.188C158.926 101.188 134.211 110.615 134.976 98.3857C135.215 94.5358 135.18 91.723 134.943 89.3713C134.683 86.9639 134.193 84.5869 133.48 82.273C132.876 80.1608 132.155 77.8449 131.409 74.6906C131.049 73.1168 130.576 71.5713 129.992 70.0662C129.974 70.0204 129.956 69.9745 129.941 69.9312C128.667 66.7693 127.393 65.7476 126.665 65.4164C125.977 65.1171 125.321 64.7483 124.708 64.3157C122.354 62.6163 117.301 58.8073 112.802 54.3078C106.687 48.1929 100.572 33.6701 100.572 33.6701C100.572 33.6701 98.7885 25.2622 102.865 18.383C106.942 11.5038 105.158 31.8866 105.158 31.8866C105.158 31.8866 112.547 41.8233 114.33 46.4094C115.248 48.7687 116.705 49.9764 117.897 50.6032C119.867 51.6287 121.754 52.8077 123.538 54.1294C124.745 55.041 126.012 55.8685 127.332 56.6059C130.181 58.1346 133.592 59.8595 136.436 60.3131C136.879 60.3864 137.328 60.4247 137.778 60.4277C137.992 60.4345 138.204 60.3921 138.398 60.3037C138.593 60.2154 138.764 60.0834 138.899 59.9181C139.664 59.0188 139.646 57.0824 139.47 55.49C139.376 54.665 139.237 53.8459 139.052 53.0364C139.052 53.0364 147.333 47.8133 147.078 54.1829C147.038 54.8868 147.104 55.5926 147.272 56.2773C147.407 56.9057 147.707 57.4869 148.141 57.9614C148.575 58.4359 149.127 58.7867 149.74 58.978C150.735 59.2696 151.787 59.3038 152.798 59.0774C153.113 59.0235 153.418 58.9194 153.7 58.7691C154.464 58.2595 162.108 55.9664 164.401 55.7116C166.694 55.4568 178.159 49.8516 178.159 49.8516L190.644 32.5262C190.644 32.5262 190.389 22.3347 195.485 18.2582C200.58 14.1816 193.449 35.8358 193.449 35.8358Z" fill="#FABDBD"/>
<g opacity="0.1">
<path opacity="0.1" d="M157.708 86.1786C157.485 88.226 157.387 90.2851 157.415 92.3444C157.44 90.9992 157.529 89.4628 157.708 87.7073C157.728 87.4933 157.751 87.2716 157.776 87.05C158.222 83.1262 158.435 79.1794 158.413 75.2305C158.374 78.6693 158.162 82.1039 157.776 85.5213C157.761 85.7429 157.728 85.9646 157.708 86.1786Z" fill="black"/>
<path opacity="0.1" d="M139.317 52.875C139.147 52.9744 139.062 53.0355 139.062 53.0355C139.31 54.1254 139.474 55.2328 139.552 56.3477C139.603 55.185 139.524 54.0202 139.317 52.875Z" fill="black"/>
<path opacity="0.1" d="M105.279 30.5061C105.404 28.7226 105.59 25.525 105.554 22.6816C105.511 26.483 105.172 30.3609 105.172 30.3609L105.279 30.5061Z" fill="black"/>
<path opacity="0.1" d="M134.996 98.0898C134.996 98.1892 134.996 98.2886 134.978 98.3879C134.214 110.618 158.928 101.191 158.928 101.191C158.639 100.8 158.421 100.362 158.284 99.8963C154.561 101.221 135.855 107.382 134.996 98.0898Z" fill="black"/>
<path opacity="0.1" d="M193.45 34.3098C193.45 34.3098 187.335 46.5395 185.297 51.1257C183.259 55.7118 164.66 62.591 162.112 62.8458C161.428 62.9395 160.792 63.2462 160.293 63.7223C158.853 64.9962 158.035 67.1771 158.035 67.1771C158.035 67.1771 158.096 67.5924 158.17 68.3823C158.456 67.7275 159.189 66.2243 160.293 65.251C160.792 64.7749 161.428 64.4682 162.112 64.3745C164.66 64.1197 183.259 57.2405 185.297 52.6544C187.335 48.0682 193.45 35.8385 193.45 35.8385C193.45 35.8385 197.759 22.7553 197.285 18.8418C196.892 23.856 193.45 34.3098 193.45 34.3098Z" fill="black"/>
<path opacity="0.1" d="M134.943 87.8456C134.683 85.4382 134.194 83.0612 133.48 80.7473C132.876 78.6352 132.155 76.3192 131.409 73.1649C131.05 71.5911 130.576 70.0456 129.992 68.5406C129.974 68.4947 129.957 68.4488 129.941 68.4055C128.667 65.2436 127.393 64.2219 126.665 63.8907C125.977 63.5914 125.321 63.2226 124.708 62.7901C122.354 61.0906 117.301 57.2816 112.802 52.7821C106.687 46.6672 100.572 32.1445 100.572 32.1445C100.346 30.9184 100.22 29.6761 100.195 28.4297C100.133 30.186 100.259 31.9439 100.572 33.6732C100.572 33.6732 106.687 48.1959 112.802 54.3108C117.301 58.8103 122.354 62.6193 124.708 64.3188C125.326 64.7523 125.987 65.1211 126.68 65.4194C127.406 65.7507 128.678 66.7723 129.957 69.9342C129.972 69.9775 129.99 70.0234 130.008 70.0693C130.589 71.5745 131.06 73.12 131.417 74.6936C132.163 77.8479 132.884 80.1639 133.488 82.276C134.201 84.5899 134.691 86.9669 134.95 89.3744C135.057 90.4394 135.121 91.5986 135.139 92.9031C135.17 91.215 135.104 89.5264 134.943 87.8456Z" fill="black"/>
</g>
<path d="M160.177 76.7764C159.788 77.4195 159.448 78.0905 159.158 78.7841C158.773 79.8542 158.771 81.0186 158.699 82.1524C158.598 83.7435 158.356 85.3225 157.976 86.871C157.914 87.1562 157.829 87.4357 157.721 87.7067C157.645 87.8891 157.545 88.0605 157.423 88.2163C157.287 88.3824 157.127 88.5275 156.949 88.6468C156.676 88.8292 156.387 88.9869 156.085 89.1182C152.539 90.7743 148.671 92.2368 144.801 91.666C143.165 91.38 141.581 90.8474 140.105 90.0864C138.704 89.4061 137.119 88.5984 135.667 89.1641C135.444 89.2772 135.204 89.3521 134.956 89.3857C134.908 89.3865 134.86 89.3823 134.813 89.373C134.334 89.2813 134.334 87.6659 134.225 87.1895C133.807 85.3601 133.743 83.8773 133.493 82.2874C133.361 81.4082 133.155 80.5415 132.879 79.6962C131.86 76.6133 131.552 73.3266 131.552 70.0959C131.552 69.9354 130.405 70.0959 130.023 70.0806C129.926 70.0806 129.873 70.0653 129.896 70.0322C129.918 70.0005 129.944 69.9715 129.972 69.9456C130.106 69.8373 130.262 69.7598 130.428 69.7188L130.729 69.6296C132.304 69.1838 134.041 68.9978 135.218 67.8895C136.441 66.7455 136.747 64.9187 136.694 63.2473C136.678 62.7097 136.416 61.4052 136.459 60.3223C136.903 60.3957 137.352 60.434 137.802 60.437C138.015 60.4438 138.227 60.4014 138.422 60.313C138.616 60.2246 138.788 60.0927 138.923 59.9274C139.348 60.7504 139.716 61.6017 140.024 62.4753C140.457 63.5403 140.788 64.6613 141.422 65.6244C142.442 67.1939 144.322 68.2258 146.192 68.0678C148.062 67.9099 149.802 66.4729 150.136 64.6282C150.429 63.0103 149.749 60.6816 149.764 59C150.758 59.2916 151.81 59.3258 152.821 59.0994C152.864 59.2032 152.901 59.3096 152.931 59.4179C153.504 61.3848 154.269 63.6422 156.192 64.3403C157.436 64.7887 158.906 64.4524 160.055 65.1047C160.143 65.1554 160.228 65.2116 160.31 65.2728C160.575 65.4701 160.803 65.7124 160.985 65.9888C161.457 66.7681 161.737 67.6483 161.803 68.557C162.097 71.3978 161.531 74.2614 160.177 76.7764Z" fill="#2AB7FF"/>
<path opacity="0.1" d="M147.27 56.2741C145.999 56.764 144.631 56.948 143.275 56.8112C141.92 56.6744 140.616 56.2207 139.469 55.4868C139.375 54.6618 139.235 53.8427 139.051 53.0332C139.051 53.0332 147.331 47.8101 147.077 54.1797C147.037 54.8836 147.102 55.5894 147.27 56.2741Z" fill="black"/>
<path d="M144.147 56.3469C148.931 56.3469 152.81 52.4685 152.81 47.6842C152.81 42.8999 148.931 39.0215 144.147 39.0215C139.363 39.0215 135.484 42.8999 135.484 47.6842C135.484 52.4685 139.363 56.3469 144.147 56.3469Z" fill="#FABDBD"/>
<path d="M128.988 69.2131C128.988 69.2131 145.804 58.5122 198.035 69.9775C250.266 81.4428 280.586 72.2706 280.586 72.2706V84.2455C280.586 84.2455 221.985 90.6151 199.564 84.2455C177.143 77.8758 145.226 74.2018 134.048 84.0646L128.988 69.2131Z" fill="#F86D70"/>
<path opacity="0.1" d="M128.988 69.2131C128.988 69.2131 145.804 58.5122 198.035 69.9775C250.266 81.4428 280.586 72.2706 280.586 72.2706V84.2455C280.586 84.2455 221.985 90.6151 199.564 84.2455C177.143 77.8758 145.226 74.2018 134.048 84.0646L128.988 69.2131Z" fill="black"/>
<path d="M129.5 69.7229C129.5 69.7229 145.806 59.0219 198.037 70.4873C250.268 81.9526 280.078 72.7803 280.078 72.7803L280.333 83.7361C280.333 83.7361 222.242 90.1057 199.821 83.7361C177.4 77.3665 145.737 72.9281 134.56 82.7908L129.5 69.7229Z" fill="#F86D70"/>
<path d="M123.367 86.1836C123.367 86.1836 106.551 96.8846 54.3205 85.4192C2.08946 73.9539 4.63732 83.1262 4.63732 83.1262V71.1513C4.63732 71.1513 30.3706 64.7816 52.7918 71.1513C75.2129 77.5209 107.13 81.1949 118.307 71.3322L123.367 86.1836Z" fill="#F86D70"/>
<path opacity="0.1" d="M123.367 86.1836C123.367 86.1836 106.551 96.8846 54.3205 85.4192C2.08946 73.9539 4.63732 83.1262 4.63732 83.1262V71.1513C4.63732 71.1513 30.3706 64.7816 52.7918 71.1513C75.2129 77.5209 107.13 81.1949 118.307 71.3322L123.367 86.1836Z" fill="black"/>
<path d="M122.86 85.6742C122.86 85.6742 106.554 96.3752 54.3229 84.9099C2.09189 73.4445 5.14932 82.6168 5.14932 82.6168L4.89453 71.661C4.89453 71.661 30.1183 65.2914 52.5394 71.661C74.9605 78.0307 106.623 82.469 117.8 72.6063L122.86 85.6742Z" fill="#F86D70"/>
<path d="M136.696 49.1182C136.442 47.5284 136.049 45.5258 137.379 44.6162C137.854 44.3286 138.402 44.1868 138.956 44.2085C141.711 44.1805 144.343 46.099 147.043 45.5385C147.903 45.3584 148.692 44.9338 149.316 44.3159C149.94 43.6979 150.372 42.9129 150.56 42.0551C150.749 41.1974 150.685 40.3035 150.378 39.481C150.07 38.6584 149.532 37.9422 148.827 37.4185C147.764 36.6287 146.422 36.3433 145.122 36.0758C141.706 35.3726 138.139 34.6719 134.765 35.5662C131.392 36.4605 128.309 39.4848 128.579 42.955C128.706 44.6162 129.552 46.1245 130.436 47.5411C131.109 48.6163 133.728 53.656 135 53.7324C136.793 53.8369 136.872 50.1578 136.696 49.1182Z" fill="#3F3D56"/>
<path d="M158.16 96.8574C158.16 96.8574 140.58 101.189 134.72 96.8574C134.72 96.8574 132.172 106.794 132.936 111.89C132.936 111.89 145.42 112.654 146.694 113.418C146.694 113.418 146.949 111.38 148.223 112.399C148.223 112.399 152.554 107.304 160.453 111.89C160.453 111.89 161.982 99.9148 158.16 96.8574Z" fill="#2AB7FF"/>
<path opacity="0.1" d="M148.831 37.4192C148.65 37.2879 148.46 37.1687 148.263 37.0625C148.788 37.6602 149.148 38.3854 149.306 39.1657C149.463 39.946 149.413 40.7539 149.161 41.5089C148.908 42.2638 148.462 42.9392 147.867 43.4676C147.272 43.9961 146.548 44.359 145.768 44.5201C143.068 45.0806 140.436 43.1621 137.682 43.1901C137.127 43.1684 136.579 43.3101 136.104 43.5977C134.774 44.5073 135.164 46.5099 135.419 48.0998C135.587 49.1393 135.518 52.8184 133.73 52.7191H133.699C134.191 53.3178 134.65 53.7229 135.004 53.7382C136.787 53.8376 136.861 50.1712 136.693 49.1189C136.438 47.5291 136.048 45.5265 137.378 44.6169C137.853 44.3293 138.401 44.1875 138.955 44.2092C141.71 44.1812 144.342 46.0997 147.042 45.5392C147.902 45.3591 148.691 44.9345 149.315 44.3166C149.939 43.6986 150.371 42.9136 150.559 42.0558C150.748 41.1981 150.684 40.3042 150.377 39.4817C150.069 38.6591 149.531 37.9429 148.826 37.4192H148.831Z" fill="black"/>
<g opacity="0.1">
<path opacity="0.1" d="M22.293 25.3185C22.293 25.3185 3.24266 17.308 0.745762 31.7543C0.745762 31.7543 -0.556191 34.0041 1.25533 35.864C1.25533 35.864 1.64516 34.8678 3.48725 35.8997C4.14485 36.2613 4.84265 36.5443 5.5663 36.743C6.5442 37.0128 7.58327 36.9574 8.52691 36.5851C8.52691 36.5851 14.7921 36.2462 20.061 28.0498C20.061 28.0498 22.3184 26.6535 22.4331 26.1312L18.6572 26.386C18.6572 26.386 18.9451 29.1504 17.3832 30.8091C17.3832 30.8091 18.7718 26.5211 18.1043 26.3988C17.9693 26.3733 16.1093 26.6204 16.1093 26.6204C16.1093 26.6204 16.5909 31.4257 14.071 33.9124C14.071 33.9124 16.41 29.023 15.3908 26.7071L12.606 27.2446C12.606 27.2446 13.3704 32.2996 10.6136 35.2424C10.6136 35.2424 12.8786 30.0447 12.0047 27.4026L9.33458 28.2995C9.33458 28.2995 9.97919 33.2474 7.67338 35.6882C7.67338 35.6882 9.68618 29.418 8.73838 28.5542C8.73838 28.5542 6.3383 29.5275 5.82364 30.083C5.82364 30.083 6.20581 33.65 4.73825 34.9239C4.73825 34.9239 5.64019 30.5925 5.19432 30.4142C5.19432 30.4142 2.40442 32.5136 1.55598 34.3251C1.55598 34.3251 2.61589 31.5582 4.84271 29.9938C4.84271 29.9938 2.97259 29.6778 1.5305 30.46C1.5305 30.46 2.49614 28.623 5.51789 29.4944C5.51789 29.4944 7.75746 27.9453 8.20588 27.9657C8.20588 27.9657 5.34719 26.6918 3.28088 26.8472C3.28088 26.8472 5.49496 25.5733 8.90654 27.7033L11.5665 26.7402C11.5665 26.7402 7.87466 24.8471 6.02237 24.8548C6.02237 24.8548 8.48359 23.9044 12.2595 26.5542L14.9832 25.9962C14.9832 25.9962 11.9257 24.1235 9.86453 23.6878C9.86453 23.6878 12.3385 23.298 15.7705 25.8688L17.6355 25.7108C17.6355 25.7108 15.3781 24.3834 14.6953 24.0598C14.0124 23.7363 14.043 23.5248 14.043 23.5248C15.6682 23.807 17.1829 24.5356 18.4177 25.6293C18.4177 25.6293 22.2751 25.5554 22.293 25.3185Z" fill="#2AB7FF"/>
</g>
<g opacity="0.1">
<path opacity="0.1" d="M21.595 10.9549C21.595 10.9549 14.833 -4.65577 5.12824 2.5037C5.12824 2.5037 3.07212 3.0999 3.08996 5.22991C3.08996 5.22991 3.88998 4.86047 4.39446 6.52167C4.58308 7.1116 4.83958 7.67762 5.15882 8.20835C5.58104 8.92221 6.22403 9.47935 6.99072 9.79566C6.99072 9.79566 10.9042 13.1639 18.7108 11.2963C18.7108 11.2963 20.8485 11.755 21.2154 11.5078L18.828 9.50521C18.828 9.50521 17.4267 11.3116 15.5464 11.4008C15.5464 11.4008 18.8153 9.64279 18.4866 9.18927C18.4204 9.09755 17.177 8.18542 17.177 8.18542C17.177 8.18542 14.7235 11.3142 11.8265 11.3626C11.8265 11.3626 16.0025 9.78802 16.7159 7.83382L14.7566 6.55989C14.7566 6.55989 12.3259 9.99694 9.01627 10.1753C9.01627 10.1753 13.3221 8.3918 14.3082 6.31275L12.2113 5.32418C12.2113 5.32418 9.77553 8.63639 7.0213 8.76124C7.0213 8.76124 11.7883 6.18281 11.7144 5.13054C11.7144 5.13054 9.73476 4.34071 9.10799 4.38657C9.10799 4.38657 7.30666 6.71786 5.69896 6.65161C5.69896 6.65161 8.70288 4.5904 8.53727 4.23115C8.53727 4.23115 5.68367 3.88974 4.14732 4.48594C4.14732 4.48594 6.35376 3.44641 8.56784 3.78782C8.56784 3.78782 7.63788 2.53173 6.34102 2.18267C6.34102 2.18267 7.96145 1.63998 9.26086 3.87954C9.26086 3.87954 11.4724 4.2337 11.7297 4.49867C11.7297 4.49867 10.7615 2.10624 9.43666 1.02849C9.43666 1.02849 11.4749 1.53807 12.2903 4.74072L14.4177 5.68597C14.4177 5.68597 13.3043 2.45784 12.1858 1.41067C12.1858 1.41067 14.191 2.24637 14.9247 5.97133L16.8586 7.19176C16.8586 7.19176 16.1069 4.33816 15.1337 2.91646C15.1337 2.91646 16.8254 4.09102 17.4013 7.57393L18.5987 8.54212C18.5987 8.54212 18.0127 6.46817 17.7911 5.88726C17.5694 5.30634 17.7095 5.19933 17.7095 5.19933C18.5129 6.29359 18.9971 7.58919 19.1083 8.94213C19.1083 8.94213 21.4574 11.0874 21.595 10.9549Z" fill="#2AB7FF"/>
</g>
</g>
<defs>
<clipPath id="clip0_1982_3001">
<rect width="280.292" height="186.498" fill="white" transform="translate(0.292969 0.626953)"/>
</clipPath>
</defs>
</svg>
