<svg width="622" height="435" viewBox="0 0 622 435" fill="none" xmlns="http://www.w3.org/2000/svg">
<g opacity="0.79">
<g clip-path="url(#clip0_1377_2291)">
<path d="M18.5364 209.987C16.2363 214.941 12.4333 218.945 7.72893 221.367C5.36401 216.249 2.99408 211.148 0.619141 206.062C2.09171 205.297 3.28132 204.038 4.00117 202.484L18.5364 209.987Z" fill="#BC2020"/>
<path d="M79.0822 211.886C74.9453 212.615 70.7256 212.658 66.5762 212.013C69.6164 206.463 71.0383 200.094 70.6647 193.7C74.0941 193.358 77.4355 192.36 80.5252 190.756C81.8686 197.807 81.3699 205.11 79.0822 211.886Z" fill="#F7B53C"/>
<path d="M19.6797 288.46C21.1961 285.204 22.1432 281.686 22.4755 278.077C28.5482 278.47 34.5965 276.973 39.8667 273.771C40.4715 278.141 40.431 282.584 39.7464 286.94C33.3113 289.349 26.376 289.874 19.6797 288.46Z" fill="#32AFD6"/>
<path d="M105.927 322.223L114.54 326.654C111.168 333.911 105.6 339.78 98.7121 343.337C97.2991 340.309 95.8912 337.286 94.4883 334.268C99.4657 331.702 103.49 327.464 105.927 322.223Z" fill="#60CC86"/>
<path d="M17.6333 85.8164C19.3316 91.0331 19.3316 96.6968 17.6333 101.913L2.31641 96.3895C2.85708 94.7546 2.85708 92.9753 2.31641 91.3404L17.6333 85.8164Z" fill="#BC2020"/>
<path d="M61.7203 42.0832C59.2828 45.6741 56.3317 48.8456 52.9721 51.485C51.3891 45.3013 48.1174 39.7429 43.5625 35.4988C45.7556 32.6755 47.4462 29.4582 48.5529 26.002C54.2514 29.9991 58.8044 35.5597 61.7203 42.0832Z" fill="#F7B53C"/>
<path d="M71.133 140.456C70.0302 136.998 68.3393 133.78 66.1426 130.959C70.7022 126.719 73.9749 121.159 75.5522 114.973C78.916 117.607 81.8677 120.779 84.3003 124.375C81.3781 130.894 76.8264 136.453 71.133 140.456Z" fill="#32AFD6"/>
<path d="M99.0449 3.55765L108.064 0.28125C110.563 7.94399 110.563 16.2656 108.064 23.9283L99.0449 20.6677C100.862 15.1249 100.862 9.10044 99.0449 3.55765Z" fill="#60CC86"/>
<path d="M562.909 90.5014C558.549 94.0101 553.201 95.8872 547.713 95.8354L547.848 77.9656C549.563 78.0058 551.243 77.4495 552.628 76.3828L562.909 90.5014Z" fill="#BC2020"/>
<path d="M473.94 61.1554C470.526 58.5939 467.513 55.4856 465.012 51.9435C470.891 50.2932 476.174 46.8452 480.193 42.0352C482.872 44.3513 485.928 46.137 489.212 47.3059C485.407 53.2942 480.128 58.0812 473.94 61.1554Z" fill="#F7B53C"/>
<path d="M380.52 34.4856C383.802 33.3129 386.857 31.5275 389.538 29.2148C393.558 34.0249 398.841 37.4728 404.72 39.1232C402.222 42.6691 399.209 45.778 395.791 48.3351C389.603 45.2609 384.324 40.4739 380.52 34.4856Z" fill="#32AFD6"/>
<path d="M510.538 100.473C511.541 103.638 512.573 106.804 513.635 109.969C506.376 112.586 498.497 112.586 491.238 109.969L494.35 100.473C499.598 102.356 505.29 102.356 510.538 100.473Z" fill="#60CC86"/>
<path d="M547.742 267.522C547.127 273.002 544.794 278.109 541.113 282.036L529.584 270.07C530.738 268.837 531.469 267.232 531.658 265.512L547.742 267.522Z" fill="#BC2020"/>
<path d="M469.548 217.442C465.877 219.575 461.911 221.086 457.794 221.921C458.913 215.628 458.249 209.127 455.885 203.228C459.006 201.698 461.842 199.591 464.257 197.008C467.736 203.193 469.564 210.253 469.548 217.442Z" fill="#F7B53C"/>
<path d="M437.577 310.416C437.991 306.813 437.777 303.16 436.945 299.638C442.79 297.893 448.018 294.376 451.977 289.523C453.929 293.428 455.289 297.632 456.005 301.98C450.698 306.492 444.33 309.407 437.577 310.416Z" fill="#32AFD6"/>
<path d="M519.032 199.73L528.562 200.918C527.659 208.94 524.249 216.418 518.867 222.175L512.027 215.099C515.921 210.94 518.386 205.532 519.032 199.73Z" fill="#60CC86"/>
<path d="M516.402 420.88C518.82 419.515 521.428 418.559 524.128 418.047C523.329 422.149 523.689 426.409 525.165 430.298C523.101 431.24 521.221 432.576 519.619 434.239C517.42 430.174 516.308 425.557 516.402 420.88Z" fill="#F7B53C"/>
<path d="M538.378 360.588C538.068 362.935 538.164 365.321 538.663 367.631C534.829 368.669 531.368 370.87 528.713 373.962C527.491 371.396 526.655 368.647 526.232 365.811C529.76 362.949 533.956 361.144 538.378 360.588Z" fill="#32AFD6"/>
<path d="M483.845 431.784L477.637 430.881C478.327 425.656 480.643 420.82 484.22 417.127L488.61 421.875C486.024 424.532 484.348 428.017 483.845 431.784Z" fill="#60CC86"/>
<path d="M351.929 371.131C349.075 369.149 346.932 366.218 345.842 362.805L355.853 359.244C356.205 360.309 356.874 361.225 357.762 361.856L351.929 371.131Z" fill="#BC2020"/>
<path d="M431.144 372.225C431.04 369.345 431.365 366.467 432.106 363.693C435.265 366.235 439.067 367.738 443.034 368.014C442.956 370.384 443.287 372.749 444.011 374.995C439.563 375.312 435.117 374.355 431.144 372.225Z" fill="#F7B53C"/>
<path d="M389.042 325.262C390.919 326.566 393.001 327.509 395.19 328.047C394.437 332.155 394.85 336.405 396.378 340.267C393.64 340.321 390.91 339.92 388.291 339.08C387.353 334.487 387.613 329.712 389.042 325.262Z" fill="#32AFD6"/>
<path d="M426.396 407.82L422.938 413.328C418.757 410.419 415.615 406.125 414.01 401.125L419.947 399.004C421.103 402.618 423.372 405.721 426.396 407.82Z" fill="#60CC86"/>
<path d="M192.522 339.239C188.939 339.385 185.411 338.271 182.496 336.073L188.929 326.576C189.842 327.269 190.947 327.62 192.071 327.573L192.522 339.239Z" fill="#BC2020"/>
<path d="M155.366 288.446C154.45 285.729 153.943 282.877 153.863 279.994C157.599 281.419 161.648 281.661 165.513 280.691C166.109 282.968 167.092 285.113 168.414 287.022C164.266 288.729 159.758 289.221 155.366 288.446Z" fill="#F7B53C"/>
<path d="M101.87 256.902C104.033 257.551 106.287 257.792 108.529 257.615C108.946 261.761 110.514 265.687 113.038 268.9C110.445 269.811 107.731 270.286 104.997 270.309C102.819 266.221 101.738 261.587 101.87 256.902Z" fill="#32AFD6"/>
<path d="M160.959 323.916L159.23 330.247C154.399 328.796 150.167 325.688 147.205 321.415L152.271 317.521C154.412 320.61 157.469 322.859 160.959 323.916Z" fill="#60CC86"/>
<path d="M97.4057 370.325C94.6845 370.015 92.0266 369.257 89.5293 368.077C92.3712 365.157 94.3319 361.418 95.166 357.33C97.3779 357.749 99.6431 357.749 101.855 357.33C101.512 362.005 99.9748 366.495 97.4057 370.325Z" fill="#F7B53C"/>
<path d="M47.2305 407.44C48.731 405.679 49.9174 403.647 50.7328 401.441C54.4835 402.813 58.5341 402.994 62.382 401.964C62.0369 404.822 61.2658 407.605 60.0972 410.21C55.6492 410.531 51.2021 409.573 47.2305 407.44Z" fill="#32AFD6"/>
<path d="M130.189 380.375L134.864 384.759C131.525 388.7 127.035 391.357 122.102 392.309L120.975 385.82C124.535 385.134 127.778 383.218 130.189 380.375Z" fill="#60CC86"/>
<path d="M195.394 18.4512C197.183 21.7261 197.887 25.5351 197.393 29.2775L186.42 27.6947C186.569 26.5233 186.347 25.333 185.789 24.3075L195.394 18.4512Z" fill="#BC2020"/>
<path d="M176.306 95.5812C174.442 97.694 172.276 99.4882 169.888 100.899C169.353 96.7479 167.676 92.8522 165.062 89.6932C166.706 88.0889 168.06 86.1854 169.061 84.0742C172.419 87.1503 174.922 91.1268 176.306 95.5812Z" fill="#F7B53C"/>
<path d="M174.502 160.128C174.057 157.804 173.216 155.584 172.021 153.575C175.318 151.246 177.886 147.941 179.402 144.078C181.372 146.083 183.03 148.401 184.317 150.947C181.9 154.892 178.506 158.066 174.502 160.128Z" fill="#32AFD6"/>
<path d="M233.181 66.3157L239.329 65.002C240.327 70.1734 239.661 75.5478 237.435 80.276L231.828 77.3478C233.439 73.9335 233.915 70.0488 233.181 66.3157Z" fill="#60CC86"/>
<path d="M347.151 85.2285C350.462 86.1133 353.401 88.1282 355.509 90.9582L347.181 97.8118C346.518 96.9242 345.592 96.2949 344.551 96.0232C345.423 92.4144 346.279 88.8215 347.151 85.2285Z" fill="#BC2020"/>
<path d="M272.054 111.789C273.05 114.472 273.644 117.302 273.813 120.178C270.035 118.878 265.977 118.784 262.149 119.909C261.478 117.649 260.424 115.536 259.037 113.673C263.132 111.809 267.633 111.157 272.054 111.789Z" fill="#F7B53C"/>
<path d="M326.527 141.435C324.347 140.861 322.087 140.7 319.853 140.961C319.262 136.837 317.537 132.985 314.893 129.881C317.464 128.885 320.167 128.319 322.904 128.203C325.225 132.188 326.477 136.761 326.527 141.435Z" fill="#32AFD6"/>
<path d="M286.197 12.2316L287.7 5.90039C292.559 7.19543 296.87 10.1583 299.951 14.3209L295.021 18.3729C292.809 15.3505 289.705 13.1897 286.197 12.2316Z" fill="#60CC86"/>
</g>
</g>
<defs>
<clipPath id="clip0_1377_2291">
<rect width="621.381" height="433.947" fill="white" transform="translate(0.619141 0.28125)"/>
</clipPath>
</defs>
</svg>
