<svg width="24" height="25" viewBox="0 0 24 25" fill="none" xmlns="http://www.w3.org/2000/svg">
<path fill-rule="evenodd" clip-rule="evenodd" d="M23.52 12.2729C23.52 11.422 23.4436 10.6038 23.3018 9.81836H12V14.4602H18.4582C18.18 15.9602 17.3345 17.2311 16.0636 18.082V21.0929H19.9418C22.2109 19.0038 23.52 15.9274 23.52 12.2729Z" fill="#4285F4"/>
<path fill-rule="evenodd" clip-rule="evenodd" d="M12.001 24.0013C15.241 24.0013 17.9573 22.9267 19.9428 21.094L16.0646 18.0831C14.9901 18.8031 13.6155 19.2285 12.001 19.2285C8.87553 19.2285 6.23007 17.1176 5.28643 14.2812H1.27734V17.3903C3.25189 21.3122 7.31007 24.0013 12.001 24.0013Z" fill="#34A853"/>
<path fill-rule="evenodd" clip-rule="evenodd" d="M5.28545 14.2804C5.04545 13.5604 4.90909 12.7913 4.90909 12.0004C4.90909 11.2095 5.04545 10.4404 5.28545 9.72042V6.61133H1.27636C0.463636 8.23133 0 10.0641 0 12.0004C0 13.9368 0.463636 15.7695 1.27636 17.3895L5.28545 14.2804Z" fill="#FBBC05"/>
<path fill-rule="evenodd" clip-rule="evenodd" d="M12.001 4.77273C13.7628 4.77273 15.3446 5.37818 16.5883 6.56727L20.0301 3.12545C17.9519 1.18909 15.2355 0 12.001 0C7.31007 0 3.25189 2.68909 1.27734 6.61091L5.28643 9.72C6.23007 6.88364 8.87553 4.77273 12.001 4.77273Z" fill="#EA4335"/>
</svg>
