<svg width="24" height="31" viewBox="0 0 24 31" fill="none" xmlns="http://www.w3.org/2000/svg">
<path d="M20.5013 10.3327H19.0846V7.49935C19.0846 3.58935 15.9113 0.416016 12.0013 0.416016C8.0913 0.416016 4.91797 3.58935 4.91797 7.49935V10.3327H3.5013C1.94297 10.3327 0.667969 11.6077 0.667969 13.166V27.3327C0.667969 28.891 1.94297 30.166 3.5013 30.166H20.5013C22.0596 30.166 23.3346 28.891 23.3346 27.3327V13.166C23.3346 11.6077 22.0596 10.3327 20.5013 10.3327ZM7.7513 7.49935C7.7513 5.14768 9.64963 3.24935 12.0013 3.24935C14.353 3.24935 16.2513 5.14768 16.2513 7.49935V10.3327H7.7513V7.49935ZM20.5013 27.3327H3.5013V13.166H20.5013V27.3327ZM12.0013 23.0827C13.5596 23.0827 14.8346 21.8077 14.8346 20.2493C14.8346 18.691 13.5596 17.416 12.0013 17.416C10.443 17.416 9.16797 18.691 9.16797 20.2493C9.16797 21.8077 10.443 23.0827 12.0013 23.0827Z" fill="#3D3D3A"/>
</svg>
