<svg width="309" height="48" viewBox="0 0 309 48" fill="none" xmlns="http://www.w3.org/2000/svg">
<path d="M56.2688 33.176H64.3008V35H54.0288V12.632H56.2688V33.176ZM83.3055 25.368C83.3055 26.136 83.2842 26.7227 83.2415 27.128H68.7455C68.8095 28.4507 69.1295 29.5813 69.7055 30.52C70.2815 31.4587 71.0388 32.1733 71.9775 32.664C72.9162 33.1333 73.9402 33.368 75.0495 33.368C76.5002 33.368 77.7162 33.016 78.6975 32.312C79.7002 31.608 80.3615 30.6587 80.6815 29.464H83.0495C82.6228 31.1707 81.7055 32.568 80.2975 33.656C78.9108 34.7227 77.1615 35.256 75.0495 35.256C73.4068 35.256 71.9348 34.8933 70.6335 34.168C69.3322 33.4213 68.3082 32.376 67.5615 31.032C66.8362 29.6667 66.4735 28.0773 66.4735 26.264C66.4735 24.4507 66.8362 22.8613 67.5615 21.496C68.2868 20.1307 69.3002 19.0853 70.6015 18.36C71.9028 17.6347 73.3855 17.272 75.0495 17.272C76.7135 17.272 78.1642 17.6347 79.4015 18.36C80.6602 19.0853 81.6202 20.0667 82.2815 21.304C82.9642 22.52 83.3055 23.8747 83.3055 25.368ZM81.0335 25.304C81.0548 24.0027 80.7882 22.8933 80.2335 21.976C79.7002 21.0587 78.9642 20.3653 78.0255 19.896C77.0868 19.4267 76.0628 19.192 74.9535 19.192C73.2895 19.192 71.8708 19.7253 70.6975 20.792C69.5242 21.8587 68.8735 23.3627 68.7455 25.304H81.0335ZM86.3798 26.232C86.3798 24.44 86.7318 22.872 87.4358 21.528C88.1611 20.1627 89.1531 19.1173 90.4118 18.392C91.6918 17.6453 93.1318 17.272 94.7318 17.272C96.3958 17.272 97.8251 17.656 99.0198 18.424C100.236 19.192 101.11 20.1733 101.644 21.368V17.528H103.884V35H101.644V31.128C101.089 32.3227 100.204 33.3147 98.9878 34.104C97.7931 34.872 96.3638 35.256 94.6998 35.256C93.1211 35.256 91.6918 34.8827 90.4118 34.136C89.1531 33.3893 88.1611 32.3333 87.4358 30.968C86.7318 29.6027 86.3798 28.024 86.3798 26.232ZM101.644 26.264C101.644 24.856 101.356 23.6187 100.78 22.552C100.204 21.4853 99.4144 20.664 98.4118 20.088C97.4304 19.512 96.3424 19.224 95.1478 19.224C93.9104 19.224 92.8011 19.5013 91.8198 20.056C90.8384 20.6107 90.0598 21.4213 89.4838 22.488C88.9291 23.5333 88.6518 24.7813 88.6518 26.232C88.6518 27.6613 88.9291 28.92 89.4838 30.008C90.0598 31.0747 90.8384 31.896 91.8198 32.472C92.8011 33.0267 93.9104 33.304 95.1478 33.304C96.3424 33.304 97.4304 33.016 98.4118 32.44C99.4144 31.864 100.204 31.0427 100.78 29.976C101.356 28.9093 101.644 27.672 101.644 26.264ZM111.238 20.632C111.728 19.544 112.475 18.7013 113.478 18.104C114.502 17.5067 115.75 17.208 117.222 17.208V19.544H116.614C114.992 19.544 113.691 19.9813 112.71 20.856C111.728 21.7307 111.238 23.192 111.238 25.24V35H108.998V17.528H111.238V20.632ZM128.783 17.208C130.874 17.208 132.581 17.8587 133.903 19.16C135.226 20.44 135.887 22.3067 135.887 24.76V35H133.679V25.016C133.679 23.1173 133.199 21.6667 132.239 20.664C131.301 19.6613 130.01 19.16 128.367 19.16C126.682 19.16 125.338 19.6933 124.335 20.76C123.333 21.8267 122.831 23.3947 122.831 25.464V35H120.591V17.528H122.831V20.504C123.386 19.4373 124.186 18.6267 125.231 18.072C126.277 17.496 127.461 17.208 128.783 17.208ZM157.865 35L154.825 31.896C153.737 33.0907 152.575 33.976 151.337 34.552C150.1 35.1067 148.703 35.384 147.145 35.384C145.652 35.384 144.329 35.1067 143.177 34.552C142.025 33.976 141.129 33.176 140.489 32.152C139.849 31.128 139.529 29.944 139.529 28.6C139.529 27.0213 139.977 25.6453 140.873 24.472C141.769 23.2987 143.081 22.3813 144.809 21.72C144.063 20.888 143.519 20.12 143.177 19.416C142.836 18.6907 142.665 17.912 142.665 17.08C142.665 15.6507 143.177 14.4987 144.201 13.624C145.225 12.728 146.591 12.28 148.297 12.28C149.897 12.28 151.199 12.7387 152.201 13.656C153.204 14.5733 153.673 15.768 153.609 17.24H151.369C151.391 16.28 151.092 15.5227 150.473 14.968C149.876 14.4133 149.119 14.136 148.201 14.136C147.22 14.136 146.42 14.4133 145.801 14.968C145.204 15.5013 144.905 16.1947 144.905 17.048C144.905 17.7307 145.087 18.392 145.449 19.032C145.833 19.672 146.431 20.4293 147.241 21.304L154.601 28.76C154.9 28.3547 155.305 27.7147 155.817 26.84L157.865 23.416H160.265L157.833 27.608C157.257 28.6107 156.681 29.5067 156.105 30.296L160.777 35H157.865ZM147.145 33.432C148.404 33.432 149.524 33.1867 150.505 32.696C151.508 32.2053 152.457 31.4373 153.353 30.392L146.217 23.16C143.252 24.248 141.769 26.04 141.769 28.536C141.769 29.4747 141.993 30.3173 142.441 31.064C142.911 31.7893 143.551 32.3653 144.361 32.792C145.172 33.2187 146.1 33.432 147.145 33.432ZM166.081 14.456V22.808H174.561V24.664H166.081V33.144H175.521V35H163.841V12.6H175.521V14.456H166.081ZM178.911 26.232C178.911 24.44 179.263 22.872 179.967 21.528C180.692 20.1627 181.684 19.1173 182.943 18.392C184.223 17.6453 185.663 17.272 187.263 17.272C188.927 17.272 190.356 17.656 191.551 18.424C192.767 19.192 193.642 20.1733 194.175 21.368V17.528H196.415V35H194.175V31.128C193.62 32.3227 192.735 33.3147 191.519 34.104C190.324 34.872 188.895 35.256 187.231 35.256C185.652 35.256 184.223 34.8827 182.943 34.136C181.684 33.3893 180.692 32.3333 179.967 30.968C179.263 29.6027 178.911 28.024 178.911 26.232ZM194.175 26.264C194.175 24.856 193.887 23.6187 193.311 22.552C192.735 21.4853 191.946 20.664 190.943 20.088C189.962 19.512 188.874 19.224 187.679 19.224C186.442 19.224 185.332 19.5013 184.351 20.056C183.37 20.6107 182.591 21.4213 182.015 22.488C181.46 23.5333 181.183 24.7813 181.183 26.232C181.183 27.6613 181.46 28.92 182.015 30.008C182.591 31.0747 183.37 31.896 184.351 32.472C185.332 33.0267 186.442 33.304 187.679 33.304C188.874 33.304 189.962 33.016 190.943 32.44C191.946 31.864 192.735 31.0427 193.311 29.976C193.887 28.9093 194.175 27.672 194.175 26.264ZM203.769 20.632C204.259 19.544 205.006 18.7013 206.009 18.104C207.033 17.5067 208.281 17.208 209.753 17.208V19.544H209.145C207.523 19.544 206.222 19.9813 205.241 20.856C204.259 21.7307 203.769 23.192 203.769 25.24V35H201.529V17.528H203.769V20.632ZM221.315 17.208C223.405 17.208 225.112 17.8587 226.435 19.16C227.757 20.44 228.419 22.3067 228.419 24.76V35H226.211V25.016C226.211 23.1173 225.731 21.6667 224.771 20.664C223.832 19.6613 222.541 19.16 220.899 19.16C219.213 19.16 217.869 19.6933 216.867 20.76C215.864 21.8267 215.363 23.3947 215.363 25.464V35H213.123V17.528H215.363V20.504C215.917 19.4373 216.717 18.6267 217.763 18.072C218.808 17.496 219.992 17.208 221.315 17.208ZM236.861 32.056H244.381V35H233.213V12.76H236.861V32.056ZM255.079 35.288C253.415 35.288 251.911 34.9147 250.567 34.168C249.223 33.4 248.167 32.3333 247.399 30.968C246.631 29.5813 246.247 27.9813 246.247 26.168C246.247 24.376 246.642 22.7867 247.431 21.4C248.221 20.0133 249.298 18.9467 250.663 18.2C252.029 17.4533 253.554 17.08 255.239 17.08C256.925 17.08 258.45 17.4533 259.815 18.2C261.181 18.9467 262.258 20.0133 263.047 21.4C263.837 22.7867 264.231 24.376 264.231 26.168C264.231 27.96 263.826 29.5493 263.015 30.936C262.205 32.3227 261.095 33.4 259.687 34.168C258.301 34.9147 256.765 35.288 255.079 35.288ZM255.079 32.12C256.018 32.12 256.893 31.896 257.703 31.448C258.535 31 259.207 30.328 259.719 29.432C260.231 28.536 260.487 27.448 260.487 26.168C260.487 24.888 260.242 23.8107 259.751 22.936C259.261 22.04 258.61 21.368 257.799 20.92C256.989 20.472 256.114 20.248 255.175 20.248C254.237 20.248 253.362 20.472 252.551 20.92C251.762 21.368 251.133 22.04 250.663 22.936C250.194 23.8107 249.959 24.888 249.959 26.168C249.959 28.0667 250.439 29.5387 251.399 30.584C252.381 31.608 253.607 32.12 255.079 32.12ZM274.942 17.08C276.307 17.08 277.512 17.3573 278.558 17.912C279.624 18.4453 280.456 19.1173 281.054 19.928V17.368H284.734V35.288C284.734 36.9093 284.392 38.3493 283.71 39.608C283.027 40.888 282.035 41.8907 280.734 42.616C279.454 43.3413 277.918 43.704 276.126 43.704C273.736 43.704 271.752 43.1387 270.174 42.008C268.595 40.8987 267.699 39.384 267.486 37.464H271.102C271.379 38.3813 271.966 39.1173 272.862 39.672C273.779 40.248 274.867 40.536 276.126 40.536C277.598 40.536 278.782 40.088 279.678 39.192C280.595 38.296 281.054 36.9947 281.054 35.288V32.344C280.435 33.176 279.592 33.88 278.526 34.456C277.48 35.0107 276.286 35.288 274.942 35.288C273.406 35.288 271.998 34.904 270.718 34.136C269.459 33.3467 268.456 32.2587 267.71 30.872C266.984 29.464 266.622 27.8747 266.622 26.104C266.622 24.3333 266.984 22.7653 267.71 21.4C268.456 20.0347 269.459 18.9787 270.718 18.232C271.998 17.464 273.406 17.08 274.942 17.08ZM281.054 26.168C281.054 24.952 280.798 23.896 280.286 23C279.795 22.104 279.144 21.4213 278.334 20.952C277.523 20.4827 276.648 20.248 275.71 20.248C274.771 20.248 273.896 20.4827 273.086 20.952C272.275 21.4 271.614 22.072 271.102 22.968C270.611 23.8427 270.366 24.888 270.366 26.104C270.366 27.32 270.611 28.3867 271.102 29.304C271.614 30.2213 272.275 30.9253 273.086 31.416C273.918 31.8853 274.792 32.12 275.71 32.12C276.648 32.12 277.523 31.8853 278.334 31.416C279.144 30.9467 279.795 30.264 280.286 29.368C280.798 28.4507 281.054 27.384 281.054 26.168ZM297.173 35.288C295.509 35.288 294.005 34.9147 292.661 34.168C291.317 33.4 290.261 32.3333 289.493 30.968C288.725 29.5813 288.341 27.9813 288.341 26.168C288.341 24.376 288.736 22.7867 289.525 21.4C290.314 20.0133 291.392 18.9467 292.757 18.2C294.122 17.4533 295.648 17.08 297.333 17.08C299.018 17.08 300.544 17.4533 301.909 18.2C303.274 18.9467 304.352 20.0133 305.141 21.4C305.93 22.7867 306.325 24.376 306.325 26.168C306.325 27.96 305.92 29.5493 305.109 30.936C304.298 32.3227 303.189 33.4 301.781 34.168C300.394 34.9147 298.858 35.288 297.173 35.288ZM297.173 32.12C298.112 32.12 298.986 31.896 299.797 31.448C300.629 31 301.301 30.328 301.813 29.432C302.325 28.536 302.581 27.448 302.581 26.168C302.581 24.888 302.336 23.8107 301.845 22.936C301.354 22.04 300.704 21.368 299.893 20.92C299.082 20.472 298.208 20.248 297.269 20.248C296.33 20.248 295.456 20.472 294.645 20.92C293.856 21.368 293.226 22.04 292.757 22.936C292.288 23.8107 292.053 24.888 292.053 26.168C292.053 28.0667 292.533 29.5387 293.493 30.584C294.474 31.608 295.701 32.12 297.173 32.12Z" fill="#3D3D3D"/>
<path d="M1.49926 6H10.4948V41.9822H1.49926C1.10163 41.9822 0.720287 41.8243 0.439122 41.5431C0.157956 41.2619 0 40.8806 0 40.483V7.49926C0 7.10163 0.157956 6.72029 0.439122 6.43912C0.720287 6.15796 1.10163 6 1.49926 6Z" fill="url(#paint0_linear_1145_6281)"/>
<path d="M42.5007 6H33.5052V41.9822H42.5007C42.8984 41.9822 43.2797 41.8243 43.5609 41.5431C43.842 41.2619 44 40.8806 44 40.483V7.49926C44 7.10163 43.842 6.72029 43.5609 6.43912C43.2797 6.15796 42.8984 6 42.5007 6Z" fill="url(#paint1_linear_1145_6281)"/>
<path d="M16.7525 6H27.2473V41.9822H16.7525V6Z" fill="url(#paint2_linear_1145_6281)"/>
<defs>
<linearGradient id="paint0_linear_1145_6281" x1="0" y1="23.9911" x2="10.4948" y2="23.9911" gradientUnits="userSpaceOnUse">
<stop stop-color="#EC008C"/>
<stop offset="1" stop-color="#FC6767"/>
</linearGradient>
<linearGradient id="paint1_linear_1145_6281" x1="44" y1="23.9911" x2="33.5052" y2="23.9911" gradientUnits="userSpaceOnUse">
<stop stop-color="#56CCF2"/>
<stop offset="1" stop-color="#2F80ED"/>
</linearGradient>
<linearGradient id="paint2_linear_1145_6281" x1="27.2473" y1="23.9911" x2="16.7525" y2="23.9911" gradientUnits="userSpaceOnUse">
<stop stop-color="#E65C00"/>
<stop offset="1" stop-color="#F9D423"/>
</linearGradient>
</defs>
</svg>
