<svg width="210" height="35" viewBox="0 0 210 35" fill="none" xmlns="http://www.w3.org/2000/svg">
<path d="M36.7785 23.746H42.3005V25H35.2385V9.622H36.7785V23.746ZM55.3663 18.378C55.3663 18.906 55.3516 19.3093 55.3223 19.588H45.3563C45.4003 20.4973 45.6203 21.2747 46.0163 21.92C46.4123 22.5653 46.9329 23.0567 47.5783 23.394C48.2236 23.7167 48.9276 23.878 49.6903 23.878C50.6876 23.878 51.5236 23.636 52.1983 23.152C52.8876 22.668 53.3423 22.0153 53.5623 21.194H55.1903C54.8969 22.3673 54.2663 23.328 53.2983 24.076C52.3449 24.8093 51.1423 25.176 49.6903 25.176C48.5609 25.176 47.5489 24.9267 46.6543 24.428C45.7596 23.9147 45.0556 23.196 44.5423 22.272C44.0436 21.3333 43.7943 20.2407 43.7943 18.994C43.7943 17.7473 44.0436 16.6547 44.5423 15.716C45.0409 14.7773 45.7376 14.0587 46.6323 13.56C47.5269 13.0613 48.5463 12.812 49.6903 12.812C50.8343 12.812 51.8316 13.0613 52.6823 13.56C53.5476 14.0587 54.2076 14.7333 54.6623 15.584C55.1316 16.42 55.3663 17.3513 55.3663 18.378ZM53.8043 18.334C53.8189 17.4393 53.6356 16.6767 53.2543 16.046C52.8876 15.4153 52.3816 14.9387 51.7363 14.616C51.0909 14.2933 50.3869 14.132 49.6243 14.132C48.4803 14.132 47.5049 14.4987 46.6983 15.232C45.8916 15.9653 45.4443 16.9993 45.3563 18.334H53.8043ZM57.4798 18.972C57.4798 17.74 57.7218 16.662 58.2058 15.738C58.7045 14.7993 59.3865 14.0807 60.2518 13.582C61.1318 13.0687 62.1218 12.812 63.2218 12.812C64.3658 12.812 65.3485 13.076 66.1698 13.604C67.0058 14.132 67.6072 14.8067 67.9738 15.628V12.988H69.5138V25H67.9738V22.338C67.5925 23.1593 66.9838 23.8413 66.1478 24.384C65.3265 24.912 64.3438 25.176 63.1998 25.176C62.1145 25.176 61.1318 24.9193 60.2518 24.406C59.3865 23.8927 58.7045 23.1667 58.2058 22.228C57.7218 21.2893 57.4798 20.204 57.4798 18.972ZM67.9738 18.994C67.9738 18.026 67.7758 17.1753 67.3798 16.442C66.9838 15.7087 66.4412 15.144 65.7518 14.748C65.0772 14.352 64.3292 14.154 63.5078 14.154C62.6572 14.154 61.8945 14.3447 61.2198 14.726C60.5452 15.1073 60.0098 15.6647 59.6138 16.398C59.2325 17.1167 59.0418 17.9747 59.0418 18.972C59.0418 19.9547 59.2325 20.82 59.6138 21.568C60.0098 22.3013 60.5452 22.866 61.2198 23.262C61.8945 23.6433 62.6572 23.834 63.5078 23.834C64.3292 23.834 65.0772 23.636 65.7518 23.24C66.4412 22.844 66.9838 22.2793 67.3798 21.546C67.7758 20.8127 67.9738 19.962 67.9738 18.994ZM74.5695 15.122C74.9069 14.374 75.4202 13.7947 76.1095 13.384C76.8135 12.9733 77.6715 12.768 78.6835 12.768V14.374H78.2655C77.1509 14.374 76.2562 14.6747 75.5815 15.276C74.9069 15.8773 74.5695 16.882 74.5695 18.29V25H73.0295V12.988H74.5695V15.122ZM86.6322 12.768C88.0696 12.768 89.2429 13.2153 90.1522 14.11C91.0616 14.99 91.5162 16.2733 91.5162 17.96V25H89.9982V18.136C89.9982 16.8307 89.6682 15.8333 89.0082 15.144C88.3629 14.4547 87.4756 14.11 86.3462 14.11C85.1876 14.11 84.2636 14.4767 83.5742 15.21C82.8849 15.9433 82.5402 17.0213 82.5402 18.444V25H81.0002V12.988H82.5402V15.034C82.9216 14.3007 83.4716 13.7433 84.1902 13.362C84.9089 12.966 85.7229 12.768 86.6322 12.768ZM106.626 25L104.536 22.866C103.788 23.6873 102.989 24.296 102.138 24.692C101.287 25.0733 100.327 25.264 99.2561 25.264C98.2294 25.264 97.3201 25.0733 96.5281 24.692C95.7361 24.296 95.1201 23.746 94.6801 23.042C94.2401 22.338 94.0201 21.524 94.0201 20.6C94.0201 19.5147 94.3281 18.5687 94.9441 17.762C95.5601 16.9553 96.4621 16.3247 97.6501 15.87C97.1368 15.298 96.7628 14.77 96.5281 14.286C96.2934 13.7873 96.1761 13.252 96.1761 12.68C96.1761 11.6973 96.5281 10.9053 97.2321 10.304C97.9361 9.688 98.8748 9.38 100.048 9.38C101.148 9.38 102.043 9.69533 102.732 10.326C103.421 10.9567 103.744 11.778 103.7 12.79H102.16C102.175 12.13 101.969 11.6093 101.544 11.228C101.133 10.8467 100.613 10.656 99.9821 10.656C99.3074 10.656 98.7574 10.8467 98.3321 11.228C97.9214 11.5947 97.7161 12.0713 97.7161 12.658C97.7161 13.1273 97.8408 13.582 98.0901 14.022C98.3541 14.462 98.7648 14.9827 99.3221 15.584L104.382 20.71C104.587 20.4313 104.866 19.9913 105.218 19.39L106.626 17.036H108.276L106.604 19.918C106.208 20.6073 105.812 21.2233 105.416 21.766L108.628 25H106.626ZM99.2561 23.922C100.121 23.922 100.891 23.7533 101.566 23.416C102.255 23.0787 102.908 22.5507 103.524 21.832L98.6181 16.86C96.5794 17.608 95.5601 18.84 95.5601 20.556C95.5601 21.2013 95.7141 21.7807 96.0221 22.294C96.3448 22.7927 96.7848 23.1887 97.3421 23.482C97.8994 23.7753 98.5374 23.922 99.2561 23.922ZM112.275 10.876V16.618H118.105V17.894H112.275V23.724H118.765V25H110.735V9.6H118.765V10.876H112.275ZM121.095 18.972C121.095 17.74 121.337 16.662 121.821 15.738C122.32 14.7993 123.002 14.0807 123.867 13.582C124.747 13.0687 125.737 12.812 126.837 12.812C127.981 12.812 128.964 13.076 129.785 13.604C130.621 14.132 131.222 14.8067 131.589 15.628V12.988H133.129V25H131.589V22.338C131.208 23.1593 130.599 23.8413 129.763 24.384C128.942 24.912 127.959 25.176 126.815 25.176C125.73 25.176 124.747 24.9193 123.867 24.406C123.002 23.8927 122.32 23.1667 121.821 22.228C121.337 21.2893 121.095 20.204 121.095 18.972ZM131.589 18.994C131.589 18.026 131.391 17.1753 130.995 16.442C130.599 15.7087 130.056 15.144 129.367 14.748C128.692 14.352 127.944 14.154 127.123 14.154C126.272 14.154 125.51 14.3447 124.835 14.726C124.16 15.1073 123.625 15.6647 123.229 16.398C122.848 17.1167 122.657 17.9747 122.657 18.972C122.657 19.9547 122.848 20.82 123.229 21.568C123.625 22.3013 124.16 22.866 124.835 23.262C125.51 23.6433 126.272 23.834 127.123 23.834C127.944 23.834 128.692 23.636 129.367 23.24C130.056 22.844 130.599 22.2793 130.995 21.546C131.391 20.8127 131.589 19.962 131.589 18.994ZM138.185 15.122C138.522 14.374 139.035 13.7947 139.725 13.384C140.429 12.9733 141.287 12.768 142.299 12.768V14.374H141.881C140.766 14.374 139.871 14.6747 139.197 15.276C138.522 15.8773 138.185 16.882 138.185 18.29V25H136.645V12.988H138.185V15.122ZM150.247 12.768C151.685 12.768 152.858 13.2153 153.767 14.11C154.677 14.99 155.131 16.2733 155.131 17.96V25H153.613V18.136C153.613 16.8307 153.283 15.8333 152.623 15.144C151.978 14.4547 151.091 14.11 149.961 14.11C148.803 14.11 147.879 14.4767 147.189 15.21C146.5 15.9433 146.155 17.0213 146.155 18.444V25H144.615V12.988H146.155V15.034C146.537 14.3007 147.087 13.7433 147.805 13.362C148.524 12.966 149.338 12.768 150.247 12.768ZM160.935 22.976H166.105V25H158.427V9.71H160.935V22.976ZM173.461 25.198C172.317 25.198 171.283 24.9413 170.359 24.428C169.435 23.9 168.709 23.1667 168.181 22.228C167.653 21.2747 167.389 20.1747 167.389 18.928C167.389 17.696 167.66 16.6033 168.203 15.65C168.745 14.6967 169.486 13.9633 170.425 13.45C171.363 12.9367 172.412 12.68 173.571 12.68C174.729 12.68 175.778 12.9367 176.717 13.45C177.655 13.9633 178.396 14.6967 178.939 15.65C179.481 16.6033 179.753 17.696 179.753 18.928C179.753 20.16 179.474 21.2527 178.917 22.206C178.359 23.1593 177.597 23.9 176.629 24.428C175.675 24.9413 174.619 25.198 173.461 25.198ZM173.461 23.02C174.106 23.02 174.707 22.866 175.265 22.558C175.837 22.25 176.299 21.788 176.651 21.172C177.003 20.556 177.179 19.808 177.179 18.928C177.179 18.048 177.01 17.3073 176.673 16.706C176.335 16.09 175.888 15.628 175.331 15.32C174.773 15.012 174.172 14.858 173.527 14.858C172.881 14.858 172.28 15.012 171.723 15.32C171.18 15.628 170.747 16.09 170.425 16.706C170.102 17.3073 169.941 18.048 169.941 18.928C169.941 20.2333 170.271 21.2453 170.931 21.964C171.605 22.668 172.449 23.02 173.461 23.02ZM187.116 12.68C188.055 12.68 188.883 12.8707 189.602 13.252C190.335 13.6187 190.907 14.0807 191.318 14.638V12.878H193.848V25.198C193.848 26.3127 193.613 27.3027 193.144 28.168C192.675 29.048 191.993 29.7373 191.098 30.236C190.218 30.7347 189.162 30.984 187.93 30.984C186.287 30.984 184.923 30.5953 183.838 29.818C182.753 29.0553 182.137 28.014 181.99 26.694H184.476C184.667 27.3247 185.07 27.8307 185.686 28.212C186.317 28.608 187.065 28.806 187.93 28.806C188.942 28.806 189.756 28.498 190.372 27.882C191.003 27.266 191.318 26.3713 191.318 25.198V23.174C190.893 23.746 190.313 24.23 189.58 24.626C188.861 25.0073 188.04 25.198 187.116 25.198C186.06 25.198 185.092 24.934 184.212 24.406C183.347 23.8633 182.657 23.1153 182.144 22.162C181.645 21.194 181.396 20.1013 181.396 18.884C181.396 17.6667 181.645 16.5887 182.144 15.65C182.657 14.7113 183.347 13.9853 184.212 13.472C185.092 12.944 186.06 12.68 187.116 12.68ZM191.318 18.928C191.318 18.092 191.142 17.366 190.79 16.75C190.453 16.134 190.005 15.6647 189.448 15.342C188.891 15.0193 188.289 14.858 187.644 14.858C186.999 14.858 186.397 15.0193 185.84 15.342C185.283 15.65 184.828 16.112 184.476 16.728C184.139 17.3293 183.97 18.048 183.97 18.884C183.97 19.72 184.139 20.4533 184.476 21.084C184.828 21.7147 185.283 22.1987 185.84 22.536C186.412 22.8587 187.013 23.02 187.644 23.02C188.289 23.02 188.891 22.8587 189.448 22.536C190.005 22.2133 190.453 21.744 190.79 21.128C191.142 20.4973 191.318 19.764 191.318 18.928ZM202.4 25.198C201.256 25.198 200.222 24.9413 199.298 24.428C198.374 23.9 197.648 23.1667 197.12 22.228C196.592 21.2747 196.328 20.1747 196.328 18.928C196.328 17.696 196.6 16.6033 197.142 15.65C197.685 14.6967 198.426 13.9633 199.364 13.45C200.303 12.9367 201.352 12.68 202.51 12.68C203.669 12.68 204.718 12.9367 205.656 13.45C206.595 13.9633 207.336 14.6967 207.878 15.65C208.421 16.6033 208.692 17.696 208.692 18.928C208.692 20.16 208.414 21.2527 207.856 22.206C207.299 23.1593 206.536 23.9 205.568 24.428C204.615 24.9413 203.559 25.198 202.4 25.198ZM202.4 23.02C203.046 23.02 203.647 22.866 204.204 22.558C204.776 22.25 205.238 21.788 205.59 21.172C205.942 20.556 206.118 19.808 206.118 18.928C206.118 18.048 205.95 17.3073 205.612 16.706C205.275 16.09 204.828 15.628 204.27 15.32C203.713 15.012 203.112 14.858 202.466 14.858C201.821 14.858 201.22 15.012 200.662 15.32C200.12 15.628 199.687 16.09 199.364 16.706C199.042 17.3073 198.88 18.048 198.88 18.928C198.88 20.2333 199.21 21.2453 199.87 21.964C200.545 22.668 201.388 23.02 202.4 23.02Z" fill="white"/>
<path d="M0.92 5.26562H6.44V28.5161H0.92C0.676001 28.5161 0.441995 28.414 0.269461 28.2324C0.0969276 28.0507 0 27.8043 0 27.5473V6.2344C0 5.97746 0.0969276 5.73105 0.269461 5.54937C0.441995 5.36769 0.676001 5.26562 0.92 5.26562Z" fill="url(#paint0_linear_1377_2243)"/>
<path d="M26.08 5.26562H20.56V28.5161H26.08C26.324 28.5161 26.558 28.414 26.7305 28.2324C26.9031 28.0507 27 27.8043 27 27.5473V6.2344C27 5.97746 26.9031 5.73105 26.7305 5.54937C26.558 5.36769 26.324 5.26562 26.08 5.26562Z" fill="url(#paint1_linear_1377_2243)"/>
<path d="M10.2807 5.26562H16.7207V28.5161H10.2807V5.26562Z" fill="url(#paint2_linear_1377_2243)"/>
<defs>
<linearGradient id="paint0_linear_1377_2243" x1="0" y1="16.8909" x2="6.44" y2="16.8909" gradientUnits="userSpaceOnUse">
<stop stop-color="#EC008C"/>
<stop offset="1" stop-color="#FC6767"/>
</linearGradient>
<linearGradient id="paint1_linear_1377_2243" x1="27" y1="16.8909" x2="20.56" y2="16.8909" gradientUnits="userSpaceOnUse">
<stop stop-color="#56CCF2"/>
<stop offset="1" stop-color="#2F80ED"/>
</linearGradient>
<linearGradient id="paint2_linear_1377_2243" x1="16.7207" y1="16.8909" x2="10.2807" y2="16.8909" gradientUnits="userSpaceOnUse">
<stop stop-color="#E65C00"/>
<stop offset="1" stop-color="#F9D423"/>
</linearGradient>
</defs>
</svg>
    