<svg width="31" height="15" viewBox="0 0 31 15" fill="none" xmlns="http://www.w3.org/2000/svg">
<path d="M10.24 8.74H6.2V12.88H4.08V8.74H0.0400001V6.82H4.08V2.68H6.2V6.82H10.24V8.74ZM16.5176 11.04C16.6509 11.7067 16.9376 12.2133 17.3776 12.56C17.8176 12.9067 18.4109 13.08 19.1576 13.08C20.1042 13.08 20.7976 12.7067 21.2376 11.96C21.6776 11.2133 21.8976 9.94 21.8976 8.14C21.5776 8.59333 21.1242 8.94667 20.5376 9.2C19.9642 9.44 19.3376 9.56 18.6576 9.56C17.7909 9.56 17.0042 9.38667 16.2976 9.04C15.5909 8.68 15.0309 8.15333 14.6176 7.46C14.2176 6.75333 14.0176 5.9 14.0176 4.9C14.0176 3.43333 14.4442 2.26667 15.2976 1.4C16.1642 0.519999 17.3509 0.079999 18.8576 0.079999C20.6709 0.079999 21.9576 0.686666 22.7176 1.9C23.4909 3.1 23.8776 4.94667 23.8776 7.44C23.8776 9.16 23.7309 10.5667 23.4376 11.66C23.1576 12.7533 22.6642 13.58 21.9576 14.14C21.2509 14.7 20.2709 14.98 19.0176 14.98C17.5909 14.98 16.4909 14.6067 15.7176 13.86C14.9442 13.1133 14.5109 12.1733 14.4176 11.04H16.5176ZM19.0576 7.64C19.8576 7.64 20.4842 7.39333 20.9376 6.9C21.4042 6.39333 21.6376 5.72667 21.6376 4.9C21.6376 3.98 21.3909 3.26667 20.8976 2.76C20.4176 2.24 19.7576 1.98 18.9176 1.98C18.0776 1.98 17.4109 2.24667 16.9176 2.78C16.4376 3.3 16.1976 3.98667 16.1976 4.84C16.1976 5.65333 16.4309 6.32667 16.8976 6.86C17.3776 7.38 18.0976 7.64 19.0576 7.64ZM26.2731 2.5V0.419999H30.4331V15H28.1331V2.5H26.2731Z" fill="#3D3D3A"/>
</svg>
