<svg width="106" height="57" viewBox="0 0 106 57" fill="none" xmlns="http://www.w3.org/2000/svg">
<path d="M3.00806 10.063C2.54606 10.063 2.13206 9.988 1.76606 9.838C1.40006 9.688 1.10606 9.466 0.884063 9.172C0.668063 8.878 0.554063 8.524 0.542063 8.11H2.18006C2.20406 8.344 2.28506 8.524 2.42306 8.65C2.56106 8.77 2.74106 8.83 2.96306 8.83C3.19106 8.83 3.37106 8.779 3.50306 8.677C3.63506 8.569 3.70106 8.422 3.70106 8.236C3.70106 8.08 3.64706 7.951 3.53906 7.849C3.43706 7.747 3.30806 7.663 3.15206 7.597C3.00206 7.531 2.78606 7.456 2.50406 7.372C2.09606 7.246 1.76306 7.12 1.50506 6.994C1.24706 6.868 1.02506 6.682 0.839063 6.436C0.653063 6.19 0.560063 5.869 0.560063 5.473C0.560063 4.885 0.773063 4.426 1.19906 4.096C1.62506 3.76 2.18006 3.592 2.86406 3.592C3.56006 3.592 4.12106 3.76 4.54706 4.096C4.97306 4.426 5.20106 4.888 5.23106 5.482H3.56606C3.55406 5.278 3.47906 5.119 3.34106 5.005C3.20306 4.885 3.02606 4.825 2.81006 4.825C2.62406 4.825 2.47406 4.876 2.36006 4.978C2.24606 5.074 2.18906 5.215 2.18906 5.401C2.18906 5.605 2.28506 5.764 2.47706 5.878C2.66906 5.992 2.96906 6.115 3.37706 6.247C3.78506 6.385 4.11506 6.517 4.36706 6.643C4.62506 6.769 4.84706 6.952 5.03306 7.192C5.21906 7.432 5.31206 7.741 5.31206 8.119C5.31206 8.479 5.21906 8.806 5.03306 9.1C4.85306 9.394 4.58906 9.628 4.24106 9.802C3.89306 9.976 3.48206 10.063 3.00806 10.063ZM9.99817 6.832C9.99817 6.208 10.1332 5.653 10.4032 5.167C10.6732 4.675 11.0482 4.294 11.5282 4.024C12.0142 3.748 12.5632 3.61 13.1752 3.61C13.9252 3.61 14.5672 3.808 15.1012 4.204C15.6352 4.6 15.9922 5.14 16.1722 5.824H14.4802C14.3542 5.56 14.1742 5.359 13.9402 5.221C13.7122 5.083 13.4512 5.014 13.1572 5.014C12.6832 5.014 12.2992 5.179 12.0052 5.509C11.7112 5.839 11.5642 6.28 11.5642 6.832C11.5642 7.384 11.7112 7.825 12.0052 8.155C12.2992 8.485 12.6832 8.65 13.1572 8.65C13.4512 8.65 13.7122 8.581 13.9402 8.443C14.1742 8.305 14.3542 8.104 14.4802 7.84H16.1722C15.9922 8.524 15.6352 9.064 15.1012 9.46C14.5672 9.85 13.9252 10.045 13.1752 10.045C12.5632 10.045 12.0142 9.91 11.5282 9.64C11.0482 9.364 10.6732 8.983 10.4032 8.497C10.1332 8.011 9.99817 7.456 9.99817 6.832ZM24.3366 10L23.0226 7.615H22.6536V10H21.1146V3.682H23.6976C24.1956 3.682 24.6186 3.769 24.9666 3.943C25.3206 4.117 25.5846 4.357 25.7586 4.663C25.9326 4.963 26.0196 5.299 26.0196 5.671C26.0196 6.091 25.8996 6.466 25.6596 6.796C25.4256 7.126 25.0776 7.36 24.6156 7.498L26.0736 10H24.3366ZM22.6536 6.526H23.6076C23.8896 6.526 24.0996 6.457 24.2376 6.319C24.3816 6.181 24.4536 5.986 24.4536 5.734C24.4536 5.494 24.3816 5.305 24.2376 5.167C24.0996 5.029 23.8896 4.96 23.6076 4.96H22.6536V6.526ZM33.9737 10.063C33.3797 10.063 32.8337 9.925 32.3357 9.649C31.8437 9.373 31.4507 8.989 31.1567 8.497C30.8687 7.999 30.7247 7.441 30.7247 6.823C30.7247 6.205 30.8687 5.65 31.1567 5.158C31.4507 4.666 31.8437 4.282 32.3357 4.006C32.8337 3.73 33.3797 3.592 33.9737 3.592C34.5677 3.592 35.1107 3.73 35.6027 4.006C36.1007 4.282 36.4907 4.666 36.7727 5.158C37.0607 5.65 37.2047 6.205 37.2047 6.823C37.2047 7.441 37.0607 7.999 36.7727 8.497C36.4847 8.989 36.0947 9.373 35.6027 9.649C35.1107 9.925 34.5677 10.063 33.9737 10.063ZM33.9737 8.659C34.4777 8.659 34.8797 8.491 35.1797 8.155C35.4857 7.819 35.6387 7.375 35.6387 6.823C35.6387 6.265 35.4857 5.821 35.1797 5.491C34.8797 5.155 34.4777 4.987 33.9737 4.987C33.4637 4.987 33.0557 5.152 32.7497 5.482C32.4497 5.812 32.2997 6.259 32.2997 6.823C32.2997 7.381 32.4497 7.828 32.7497 8.164C33.0557 8.494 33.4637 8.659 33.9737 8.659ZM43.5999 8.812H45.6159V10H42.0609V3.682H43.5999V8.812ZM51.889 8.812H53.905V10H50.35V3.682H51.889V8.812ZM66.9133 3.682C67.5793 3.682 68.1613 3.814 68.6593 4.078C69.1573 4.342 69.5413 4.714 69.8113 5.194C70.0873 5.668 70.2253 6.217 70.2253 6.841C70.2253 7.459 70.0873 8.008 69.8113 8.488C69.5413 8.968 69.1543 9.34 68.6503 9.604C68.1523 9.868 67.5733 10 66.9133 10H64.5463V3.682H66.9133ZM66.8143 8.668C67.3963 8.668 67.8493 8.509 68.1733 8.191C68.4973 7.873 68.6593 7.423 68.6593 6.841C68.6593 6.259 68.4973 5.806 68.1733 5.482C67.8493 5.158 67.3963 4.996 66.8143 4.996H66.0853V8.668H66.8143ZM78.0733 10.063C77.4793 10.063 76.9333 9.925 76.4353 9.649C75.9433 9.373 75.5503 8.989 75.2563 8.497C74.9683 7.999 74.8243 7.441 74.8243 6.823C74.8243 6.205 74.9683 5.65 75.2563 5.158C75.5503 4.666 75.9433 4.282 76.4353 4.006C76.9333 3.73 77.4793 3.592 78.0733 3.592C78.6673 3.592 79.2103 3.73 79.7023 4.006C80.2003 4.282 80.5903 4.666 80.8723 5.158C81.1603 5.65 81.3043 6.205 81.3043 6.823C81.3043 7.441 81.1603 7.999 80.8723 8.497C80.5843 8.989 80.1943 9.373 79.7023 9.649C79.2103 9.925 78.6673 10.063 78.0733 10.063ZM78.0733 8.659C78.5773 8.659 78.9793 8.491 79.2793 8.155C79.5853 7.819 79.7383 7.375 79.7383 6.823C79.7383 6.265 79.5853 5.821 79.2793 5.491C78.9793 5.155 78.5773 4.987 78.0733 4.987C77.5633 4.987 77.1553 5.152 76.8493 5.482C76.5493 5.812 76.3993 6.259 76.3993 6.823C76.3993 7.381 76.5493 7.828 76.8493 8.164C77.1553 8.494 77.5633 8.659 78.0733 8.659ZM94.8545 3.682L93.2075 10H91.3445L90.3365 5.842L89.2925 10H87.4295L85.8275 3.682H87.4745L88.3835 8.281L89.5085 3.682H91.2005L92.2805 8.281L93.1985 3.682H94.8545ZM105.278 10H103.739L101.165 6.103V10H99.6264V3.682H101.165L103.739 7.597V3.682H105.278V10Z" fill="#3D3D3A"/>
<path d="M54.2929 56.7071C54.6834 57.0976 55.3166 57.0976 55.7071 56.7071L62.0711 50.3431C62.4616 49.9526 62.4616 49.3195 62.0711 48.9289C61.6805 48.5384 61.0474 48.5384 60.6569 48.9289L55 54.5858L49.3431 48.9289C48.9526 48.5384 48.3195 48.5384 47.9289 48.9289C47.5384 49.3195 47.5384 49.9526 47.9289 50.3431L54.2929 56.7071ZM54 25L54 56L56 56L56 25L54 25Z" fill="#3D3D3A"/>
</svg>
