<svg width="360" height="50" viewBox="0 0 360 50" fill="none" xmlns="http://www.w3.org/2000/svg">
<rect width="360" height="49.0511" fill="#60CC86"/>
<path fill-rule="evenodd" clip-rule="evenodd" d="M24.5263 29.7812C24.5263 29.5832 24.4597 29.3844 24.3231 29.2206L20.4025 24.5161L24.182 19.8194C24.486 19.4437 24.4264 18.8918 24.0489 18.5879C23.6723 18.2848 23.1213 18.3444 22.8174 18.7219L18.5885 23.9774C18.3266 24.3015 18.3301 24.7666 18.5981 25.0872L22.9777 30.3426C23.2869 30.714 23.8396 30.7639 24.2109 30.4548C24.4185 30.2813 24.5263 30.0326 24.5263 29.7812Z" fill="white"/>
<path d="M54.2828 28.3562L57.559 30.9565L56.1647 32.1797L52.9484 29.605L54.2828 28.3562ZM57.5846 23.4463V24.1306C57.5846 25.0715 57.462 25.9155 57.2168 26.6625C56.9716 27.4096 56.6209 28.0454 56.1647 28.57C55.7085 29.0947 55.1639 29.4967 54.5309 29.7761C53.8979 30.0498 53.1965 30.1867 52.4267 30.1867C51.6625 30.1867 50.964 30.0498 50.331 29.7761C49.7037 29.4967 49.1591 29.0947 48.6972 28.57C48.2353 28.0454 47.876 27.4096 47.6194 26.6625C47.3685 25.9155 47.243 25.0715 47.243 24.1306V23.4463C47.243 22.5054 47.3685 21.6642 47.6194 20.9229C47.8703 20.1759 48.2239 19.54 48.6801 19.0154C49.142 18.4851 49.6866 18.083 50.3139 17.8093C50.9469 17.5299 51.6454 17.3902 52.4096 17.3902C53.1794 17.3902 53.8808 17.5299 54.5138 17.8093C55.1525 18.083 55.6999 18.4851 56.1561 19.0154C56.6123 19.54 56.963 20.1759 57.2083 20.9229C57.4592 21.6642 57.5846 22.5054 57.5846 23.4463ZM55.4291 24.1306V23.4292C55.4291 22.7335 55.3606 22.1204 55.2238 21.5901C55.0926 21.0541 54.8959 20.6064 54.6336 20.2471C54.3769 19.8822 54.0604 19.6085 53.6841 19.426C53.3134 19.2378 52.8886 19.1437 52.4096 19.1437C51.9419 19.1437 51.5228 19.2378 51.1521 19.426C50.7815 19.6085 50.465 19.8822 50.2027 20.2471C49.9404 20.6064 49.7408 21.0541 49.6039 21.5901C49.467 22.1204 49.3986 22.7335 49.3986 23.4292V24.1306C49.3986 24.8263 49.467 25.4422 49.6039 25.9782C49.7408 26.5143 49.9404 26.9676 50.2027 27.3383C50.4707 27.7032 50.79 27.9798 51.1607 28.168C51.5371 28.3505 51.9591 28.4417 52.4267 28.4417C52.9057 28.4417 53.3305 28.3505 53.7012 28.168C54.0719 27.9798 54.3855 27.7032 54.6421 27.3383C54.8987 26.9676 55.0926 26.5143 55.2238 25.9782C55.3606 25.4422 55.4291 24.8263 55.4291 24.1306ZM65.2605 27.8344V20.7604H67.3305V30.0156H65.3802L65.2605 27.8344ZM65.5513 25.9098L66.2442 25.8927C66.2442 26.5143 66.1758 27.0874 66.0389 27.612C65.902 28.1309 65.691 28.5843 65.4059 28.9721C65.1208 29.3541 64.7558 29.6535 64.311 29.8702C63.8662 30.0812 63.333 30.1867 62.7115 30.1867C62.2609 30.1867 61.8475 30.1211 61.4711 29.99C61.0948 29.8588 60.7697 29.6564 60.496 29.3826C60.228 29.1089 60.0198 28.7525 59.8716 28.3134C59.7233 27.8743 59.6492 27.3497 59.6492 26.7395V20.7604H61.7107V26.7566C61.7107 27.0931 61.7506 27.3753 61.8304 27.6034C61.9102 27.8258 62.0186 28.0055 62.1555 28.1423C62.2923 28.2792 62.452 28.3761 62.6345 28.4332C62.8169 28.4902 63.0108 28.5187 63.2161 28.5187C63.8035 28.5187 64.2654 28.4047 64.6018 28.1766C64.944 27.9427 65.1864 27.6291 65.3289 27.2356C65.4772 26.8422 65.5513 26.4002 65.5513 25.9098ZM73.6549 30.1867C72.9706 30.1867 72.3518 30.0755 71.7987 29.8531C71.2513 29.625 70.7836 29.3085 70.3959 28.9036C70.0138 28.4987 69.7201 28.0226 69.5148 27.4751C69.3095 26.9277 69.2069 26.3375 69.2069 25.7045V25.3623C69.2069 24.6381 69.3124 23.9823 69.5234 23.395C69.7344 22.8076 70.0281 22.3058 70.4044 21.8895C70.7808 21.4675 71.2256 21.1453 71.7388 20.9229C72.2521 20.7005 72.8081 20.5893 73.4068 20.5893C74.0683 20.5893 74.6471 20.7005 75.1432 20.9229C75.6394 21.1453 76.05 21.4589 76.375 21.8638C76.7057 22.263 76.951 22.7392 77.1106 23.2923C77.276 23.8455 77.3587 24.4556 77.3587 25.1228V26.0039H70.2077V24.5241H75.3229V24.3615C75.3115 23.9909 75.2373 23.643 75.1005 23.318C74.9693 22.9929 74.7669 22.7306 74.4932 22.531C74.2194 22.3314 73.8545 22.2316 73.3983 22.2316C73.0561 22.2316 72.751 22.3058 72.483 22.454C72.2207 22.5966 72.0011 22.8047 71.8244 23.0785C71.6476 23.3522 71.5107 23.6829 71.4138 24.0707C71.3225 24.4528 71.2769 24.8833 71.2769 25.3623V25.7045C71.2769 26.1094 71.3311 26.4857 71.4394 26.8336C71.5535 27.1758 71.7189 27.4751 71.9356 27.7318C72.1523 27.9884 72.4146 28.1908 72.7225 28.3391C73.0305 28.4816 73.3812 28.5529 73.7746 28.5529C74.2708 28.5529 74.7127 28.4531 75.1005 28.2535C75.4883 28.0539 75.8247 27.7717 76.1098 27.4067L77.1962 28.4588C76.9966 28.7497 76.7371 29.0291 76.4178 29.2971C76.0984 29.5594 75.7078 29.7733 75.2459 29.9386C74.7897 30.104 74.2594 30.1867 73.6549 30.1867ZM84.2904 27.5094C84.2904 27.3041 84.239 27.1187 84.1364 26.9534C84.0338 26.7823 83.837 26.6283 83.5462 26.4914C83.2611 26.3546 82.8391 26.2291 82.2802 26.1151C81.7898 26.0067 81.3393 25.8784 80.9287 25.7302C80.5238 25.5762 80.176 25.3909 79.8851 25.1742C79.5943 24.9575 79.3691 24.7008 79.2094 24.4043C79.0497 24.1078 78.9699 23.7656 78.9699 23.3779C78.9699 23.0015 79.0526 22.6451 79.218 22.3086C79.3833 21.9722 79.62 21.6756 79.9279 21.419C80.2359 21.1624 80.6094 20.96 81.0485 20.8117C81.4933 20.6634 81.9894 20.5893 82.5368 20.5893C83.3124 20.5893 83.9767 20.7205 84.5299 20.9828C85.0887 21.2394 85.5164 21.5901 85.813 22.0349C86.1095 22.474 86.2578 22.9701 86.2578 23.5233H84.1963C84.1963 23.2781 84.1336 23.05 84.0081 22.839C83.8883 22.6223 83.7059 22.4483 83.4607 22.3172C83.2154 22.1803 82.9075 22.1119 82.5368 22.1119C82.1833 22.1119 81.8896 22.1689 81.6558 22.283C81.4277 22.3913 81.2566 22.5339 81.1426 22.7107C81.0342 22.8874 80.98 23.0813 80.98 23.2923C80.98 23.4463 81.0086 23.586 81.0656 23.7115C81.1283 23.8312 81.231 23.9424 81.3735 24.0451C81.5161 24.142 81.71 24.2332 81.9552 24.3188C82.2061 24.4043 82.5197 24.487 82.8961 24.5668C83.6032 24.7151 84.2105 24.9061 84.7181 25.1399C85.2313 25.368 85.6248 25.6646 85.8985 26.0295C86.1722 26.3888 86.3091 26.845 86.3091 27.3982C86.3091 27.8087 86.2207 28.1851 86.0439 28.5273C85.8728 28.8637 85.6219 29.1574 85.2912 29.4083C84.9604 29.6535 84.5641 29.8445 84.1022 29.9814C83.646 30.1183 83.1328 30.1867 82.5625 30.1867C81.7242 30.1867 81.0143 30.0384 80.4326 29.7419C79.8509 29.4397 79.409 29.0547 79.1068 28.5871C78.8102 28.1138 78.662 27.6234 78.662 27.1159H80.655C80.6778 27.4979 80.7833 27.803 80.9715 28.0311C81.1654 28.2535 81.4049 28.4161 81.69 28.5187C81.9808 28.6156 82.2802 28.6641 82.5882 28.6641C82.9588 28.6641 83.2696 28.6156 83.5205 28.5187C83.7714 28.4161 83.9625 28.2792 84.0936 28.1081C84.2248 27.9313 84.2904 27.7318 84.2904 27.5094ZM92.488 20.7604V22.2659H87.2702V20.7604H92.488ZM88.7757 18.4936H90.8371V27.458C90.8371 27.7432 90.8771 27.9627 90.9569 28.1167C91.0424 28.2649 91.1593 28.3647 91.3076 28.4161C91.4559 28.4674 91.6298 28.493 91.8294 28.493C91.9719 28.493 92.1088 28.4845 92.24 28.4674C92.3711 28.4503 92.4766 28.4332 92.5565 28.4161L92.565 29.99C92.3939 30.0413 92.1943 30.0869 91.9662 30.1268C91.7438 30.1667 91.4872 30.1867 91.1964 30.1867C90.7231 30.1867 90.3039 30.104 89.939 29.9386C89.574 29.7676 89.2889 29.491 89.0836 29.1089C88.8783 28.7268 88.7757 28.2193 88.7757 27.5863V18.4936ZM96.4173 20.7604V30.0156H94.3473V20.7604H96.4173ZM94.2104 18.3311C94.2104 18.0175 94.3131 17.758 94.5184 17.5527C94.7294 17.3417 95.0202 17.2362 95.3908 17.2362C95.7558 17.2362 96.0438 17.3417 96.2548 17.5527C96.4658 17.758 96.5713 18.0175 96.5713 18.3311C96.5713 18.639 96.4658 18.8956 96.2548 19.1009C96.0438 19.3062 95.7558 19.4089 95.3908 19.4089C95.0202 19.4089 94.7294 19.3062 94.5184 19.1009C94.3131 18.8956 94.2104 18.639 94.2104 18.3311ZM98.4134 25.4906V25.2939C98.4134 24.6267 98.5104 24.008 98.7043 23.4377C98.8982 22.8618 99.1776 22.3628 99.5425 21.9408C99.9132 21.5131 100.364 21.1824 100.894 20.9486C101.43 20.7091 102.035 20.5893 102.707 20.5893C103.386 20.5893 103.991 20.7091 104.521 20.9486C105.057 21.1824 105.51 21.5131 105.881 21.9408C106.252 22.3628 106.534 22.8618 106.728 23.4377C106.922 24.008 107.019 24.6267 107.019 25.2939V25.4906C107.019 26.1578 106.922 26.7766 106.728 27.3468C106.534 27.9171 106.252 28.4161 105.881 28.8438C105.51 29.2657 105.06 29.5965 104.529 29.836C103.999 30.0698 103.397 30.1867 102.725 30.1867C102.046 30.1867 101.439 30.0698 100.903 29.836C100.372 29.5965 99.9218 29.2657 99.5511 28.8438C99.1804 28.4161 98.8982 27.9171 98.7043 27.3468C98.5104 26.7766 98.4134 26.1578 98.4134 25.4906ZM100.475 25.2939V25.4906C100.475 25.9069 100.518 26.3004 100.603 26.6711C100.689 27.0417 100.823 27.3668 101.005 27.6462C101.188 27.9256 101.422 28.1452 101.707 28.3049C101.992 28.4645 102.331 28.5444 102.725 28.5444C103.107 28.5444 103.437 28.4645 103.717 28.3049C104.002 28.1452 104.236 27.9256 104.418 27.6462C104.601 27.3668 104.735 27.0417 104.82 26.6711C104.911 26.3004 104.957 25.9069 104.957 25.4906V25.2939C104.957 24.8833 104.911 24.4956 104.82 24.1306C104.735 23.7599 104.598 23.432 104.41 23.1469C104.227 22.8618 103.993 22.6394 103.708 22.4797C103.429 22.3143 103.095 22.2316 102.707 22.2316C102.32 22.2316 101.983 22.3143 101.698 22.4797C101.419 22.6394 101.188 22.8618 101.005 23.1469C100.823 23.432 100.689 23.7599 100.603 24.1306C100.518 24.4956 100.475 24.8833 100.475 25.2939ZM110.922 22.7363V30.0156H108.861V20.7604H110.802L110.922 22.7363ZM110.554 25.0458L109.887 25.0373C109.893 24.3815 109.984 23.7799 110.161 23.2324C110.343 22.685 110.594 22.2145 110.914 21.8211C111.239 21.4276 111.626 21.1253 112.077 20.9143C112.527 20.6977 113.029 20.5893 113.582 20.5893C114.027 20.5893 114.429 20.652 114.789 20.7775C115.154 20.8972 115.464 21.094 115.721 21.3677C115.983 21.6414 116.183 21.9978 116.32 22.4369C116.457 22.8703 116.525 23.4035 116.525 24.0365V30.0156H114.455V24.0279C114.455 23.5831 114.389 23.2324 114.258 22.9758C114.133 22.7135 113.947 22.5282 113.702 22.4198C113.463 22.3058 113.163 22.2487 112.804 22.2487C112.45 22.2487 112.134 22.3229 111.855 22.4711C111.575 22.6194 111.339 22.8219 111.145 23.0785C110.956 23.3351 110.811 23.6316 110.708 23.9681C110.606 24.3045 110.554 24.6638 110.554 25.0458ZM120.805 22.7363V30.0156H118.743V20.7604H120.685L120.805 22.7363ZM120.437 25.0458L119.77 25.0373C119.776 24.3815 119.867 23.7799 120.044 23.2324C120.226 22.685 120.477 22.2145 120.796 21.8211C121.121 21.4276 121.509 21.1253 121.96 20.9143C122.41 20.6977 122.912 20.5893 123.465 20.5893C123.91 20.5893 124.312 20.652 124.671 20.7775C125.036 20.8972 125.347 21.094 125.604 21.3677C125.866 21.6414 126.066 21.9978 126.202 22.4369C126.339 22.8703 126.408 23.4035 126.408 24.0365V30.0156H124.338V24.0279C124.338 23.5831 124.272 23.2324 124.141 22.9758C124.016 22.7135 123.83 22.5282 123.585 22.4198C123.345 22.3058 123.046 22.2487 122.687 22.2487C122.333 22.2487 122.017 22.3229 121.737 22.4711C121.458 22.6194 121.221 22.8219 121.027 23.0785C120.839 23.3351 120.694 23.6316 120.591 23.9681C120.488 24.3045 120.437 24.6638 120.437 25.0458ZM133.861 28.1594V23.7457C133.861 23.4149 133.801 23.1298 133.682 22.8903C133.562 22.6508 133.379 22.4654 133.134 22.3343C132.895 22.2031 132.592 22.1375 132.227 22.1375C131.891 22.1375 131.6 22.1946 131.355 22.3086C131.11 22.4227 130.919 22.5766 130.782 22.7705C130.645 22.9644 130.577 23.184 130.577 23.4292H128.524C128.524 23.0642 128.612 22.7107 128.789 22.3685C128.966 22.0263 129.222 21.7213 129.559 21.4532C129.895 21.1852 130.297 20.9742 130.765 20.8203C131.232 20.6663 131.757 20.5893 132.339 20.5893C133.034 20.5893 133.65 20.7062 134.186 20.94C134.728 21.1738 135.153 21.5274 135.461 22.0007C135.774 22.4683 135.931 23.0557 135.931 23.7628V27.8772C135.931 28.2992 135.96 28.6784 136.017 29.0148C136.079 29.3456 136.168 29.6336 136.282 29.8788V30.0156H134.169C134.072 29.7932 133.995 29.5109 133.938 29.1688C133.887 28.8209 133.861 28.4845 133.861 28.1594ZM134.161 24.3872L134.178 25.6617H132.698C132.316 25.6617 131.979 25.6988 131.689 25.7729C131.398 25.8414 131.155 25.944 130.961 26.0809C130.768 26.2177 130.622 26.3831 130.525 26.577C130.428 26.7709 130.38 26.9904 130.38 27.2356C130.38 27.4808 130.437 27.7061 130.551 27.9114C130.665 28.111 130.83 28.2678 131.047 28.3818C131.269 28.4959 131.537 28.5529 131.851 28.5529C132.273 28.5529 132.641 28.4674 132.954 28.2963C133.274 28.1195 133.525 27.9057 133.707 27.6548C133.89 27.3982 133.987 27.1558 133.998 26.9277L134.665 27.843C134.597 28.0768 134.48 28.3277 134.315 28.5957C134.149 28.8637 133.932 29.1203 133.664 29.3655C133.402 29.605 133.086 29.8018 132.715 29.9557C132.35 30.1097 131.928 30.1867 131.449 30.1867C130.845 30.1867 130.306 30.0669 129.832 29.8274C129.359 29.5822 128.988 29.2543 128.72 28.8438C128.452 28.4275 128.318 27.957 128.318 27.4324C128.318 26.9419 128.41 26.5086 128.592 26.1322C128.78 25.7501 129.054 25.4308 129.413 25.1742C129.778 24.9175 130.223 24.7237 130.748 24.5925C131.272 24.4556 131.871 24.3872 132.544 24.3872H134.161ZM140.425 20.7604V30.0156H138.355V20.7604H140.425ZM138.218 18.3311C138.218 18.0175 138.321 17.758 138.526 17.5527C138.737 17.3417 139.028 17.2362 139.399 17.2362C139.764 17.2362 140.052 17.3417 140.263 17.5527C140.474 17.758 140.579 18.0175 140.579 18.3311C140.579 18.639 140.474 18.8956 140.263 19.1009C140.052 19.3062 139.764 19.4089 139.399 19.4089C139.028 19.4089 138.737 19.3062 138.526 19.1009C138.321 18.8956 138.218 18.639 138.218 18.3311ZM144.885 22.5225V30.0156H142.823V20.7604H144.791L144.885 22.5225ZM147.716 20.7005L147.699 22.6166C147.573 22.5938 147.437 22.5766 147.288 22.5652C147.146 22.5538 147.003 22.5481 146.861 22.5481C146.507 22.5481 146.196 22.5995 145.928 22.7021C145.66 22.799 145.435 22.9416 145.253 23.1298C145.076 23.3123 144.939 23.5347 144.842 23.797C144.745 24.0593 144.688 24.353 144.671 24.678L144.2 24.7122C144.2 24.1306 144.257 23.5917 144.371 23.0956C144.486 22.5995 144.657 22.1632 144.885 21.7868C145.118 21.4105 145.409 21.1168 145.757 20.9058C146.111 20.6948 146.518 20.5893 146.98 20.5893C147.106 20.5893 147.24 20.6007 147.382 20.6235C147.531 20.6463 147.642 20.672 147.716 20.7005ZM153.048 30.1867C152.364 30.1867 151.745 30.0755 151.192 29.8531C150.644 29.625 150.177 29.3085 149.789 28.9036C149.407 28.4987 149.113 28.0226 148.908 27.4751C148.703 26.9277 148.6 26.3375 148.6 25.7045V25.3623C148.6 24.6381 148.706 23.9823 148.917 23.395C149.128 22.8076 149.421 22.3058 149.798 21.8895C150.174 21.4675 150.619 21.1453 151.132 20.9229C151.645 20.7005 152.201 20.5893 152.8 20.5893C153.462 20.5893 154.04 20.7005 154.536 20.9229C155.033 21.1453 155.443 21.4589 155.768 21.8638C156.099 22.263 156.344 22.7392 156.504 23.2923C156.669 23.8455 156.752 24.4556 156.752 25.1228V26.0039H149.601V24.5241H154.716V24.3615C154.705 23.9909 154.631 23.643 154.494 23.318C154.363 22.9929 154.16 22.7306 153.886 22.531C153.613 22.3314 153.248 22.2316 152.792 22.2316C152.449 22.2316 152.144 22.3058 151.876 22.454C151.614 22.5966 151.394 22.8047 151.218 23.0785C151.041 23.3522 150.904 23.6829 150.807 24.0707C150.716 24.4528 150.67 24.8833 150.67 25.3623V25.7045C150.67 26.1094 150.724 26.4857 150.833 26.8336C150.947 27.1758 151.112 27.4751 151.329 27.7318C151.546 27.9884 151.808 28.1908 152.116 28.3391C152.424 28.4816 152.774 28.5529 153.168 28.5529C153.664 28.5529 154.106 28.4531 154.494 28.2535C154.881 28.0539 155.218 27.7717 155.503 27.4067L156.589 28.4588C156.39 28.7497 156.13 29.0291 155.811 29.2971C155.492 29.5594 155.101 29.7733 154.639 29.9386C154.183 30.104 153.653 30.1867 153.048 30.1867Z" fill="white"/>
<path fill-rule="evenodd" clip-rule="evenodd" d="M296.058 33.2854C297.022 33.2854 297.81 32.497 297.81 31.5335H294.306C294.306 32.497 295.086 33.2854 296.058 33.2854ZM301.314 28.0299V23.6503C301.314 20.9613 299.877 18.7102 297.372 18.1146V17.5189C297.372 16.7919 296.785 16.2051 296.058 16.2051C295.331 16.2051 294.744 16.7919 294.744 17.5189V18.1146C292.23 18.7102 290.803 20.9525 290.803 23.6503V28.0299L289.051 29.7817V30.6576H303.065V29.7817L301.314 28.0299Z" fill="white" fill-opacity="0.74"/>
<path fill-rule="evenodd" clip-rule="evenodd" d="M341.164 26.2796H340.472L340.227 26.0431C341.085 25.0445 341.602 23.7482 341.602 22.338C341.602 19.1934 339.053 16.6445 335.908 16.6445C332.764 16.6445 330.215 19.1934 330.215 22.338C330.215 25.4825 332.764 28.0314 335.908 28.0314C337.318 28.0314 338.615 27.5146 339.613 26.6562L339.85 26.9015V27.5934L344.229 31.9642L345.535 30.6591L341.164 26.2796ZM335.908 26.2796C333.727 26.2796 331.967 24.519 331.967 22.338C331.967 20.1569 333.727 18.3964 335.908 18.3964C338.089 18.3964 339.85 20.1569 339.85 22.338C339.85 24.519 338.089 26.2796 335.908 26.2796Z" fill="white" fill-opacity="0.74"/>
</svg>
